<?xml version="1.0" encoding="UTF-8" standalone="no"?>
<!-- Uploaded to: SVG Repo, www.svgrepo.com, Generator: SVG Repo Mixer Tools -->

<svg
   fill="#708190"
   width="800"
   height="800"
   viewBox="-1.5 0 19 19"
   class="cf-icon-svg"
   version="1.1"
   id="svg1"
   xmlns="http://www.w3.org/2000/svg"
   xmlns:svg="http://www.w3.org/2000/svg">
  <defs
     id="defs1" />
  <path
     d="M 7.5655463,3.0470893 V 15.951956 c 0,0.817442 -0.4730444,1.013092 -1.0506143,0.435522 L 2.6340914,12.506638 H -0.0138854 A 1.4888169,1.4888169 0 0 1 -1.5000222,11.023181 V 7.9785443 a 1.490157,1.490157 0 0 1 1.4847967,-1.486137 H 2.6340914 L 6.514932,2.6115667 C 7.0911618,2.035337 7.5655463,2.2309871 7.5655463,3.0470893 Z M 17.282389,12.277486 A 0.74289664,0.74289664 0 1 1 16.231774,13.3281 L 13.455151,10.550137 10.677187,13.3281 A 0.74289649,0.74289649 0 1 1 9.6265728,12.277486 L 12.404537,9.4995223 9.6265728,6.7215591 A 0.74242286,0.74242286 0 0 1 10.677187,5.6722849 l 2.776624,2.7779634 2.776623,-2.7779634 a 0.7424231,0.7424231 0 0 1 1.050615,1.0492742 l -2.776624,2.7779632 z"
     id="path1"
     style="fill: #708190;fill-opacity:1;stroke:none;stroke-width:1.34007" />
</svg>
