<?xml version="1.0" encoding="UTF-8" standalone="no"?>
<!-- Uploaded to: SVG Repo, www.svgrepo.com, Generator: SVG Repo Mixer Tools -->

<svg
   fill="#708190"
   width="800"
   height="800"
   viewBox="-2.5 0 19 19"
   class="cf-icon-svg"
   version="1.1"
   id="svg1"
   xmlns="http://www.w3.org/2000/svg"
   xmlns:svg="http://www.w3.org/2000/svg">
  <defs
     id="defs1" />
  <path
     d="M 7.540399,2.3534059 V 16.645947 c 0,0.905343 -0.523912,1.122031 -1.1635882,0.482355 L 2.0786593,12.83015 H -0.85554154 A 1.6503952,1.6503952 0 0 1 -2.5,11.185691 V 7.8136612 A 1.6503952,1.6503952 0 0 1 -0.85554154,6.1692027 H 2.0786593 L 6.3768108,1.8710512 C 7.015003,1.2328588 7.540399,1.4480632 7.540399,2.3534059 Z M 11.203326,13.20416 a 5.2391142,5.2391142 0 0 0 0,-7.4089677 0.82278097,0.82278097 0 0 0 -1.163588,1.163588 3.5991082,3.5991082 0 0 1 0,5.0832767 0.82225638,0.82225638 0 1 0 1.163588,1.162103 z m 2.658146,2.65963 a 8.992576,8.992576 0 0 0 0,-12.7267432 0.82225639,0.82225639 0 1 0 -1.163588,1.1621038 7.3540541,7.3540541 0 0 1 0,10.4010514 0.82278097,0.82278097 0 1 0 1.163588,1.163588 z"
     id="path1"
     style="fill: #708190;fill-opacity:1;stroke:none;stroke-width:1.48416;stroke-dasharray:none" />
</svg>
