<?xml version="1.0" encoding="UTF-8" standalone="no"?>
<!-- Created with Inkscape (http://www.inkscape.org/) -->

<svg
   width="1000"
   height="1000"
   viewBox="0 0 1000 1000"
   version="1.1"
   id="svg1"
   xml:space="preserve"
   xmlns="http://www.w3.org/2000/svg"
   xmlns:svg="http://www.w3.org/2000/svg"><defs
     id="defs1" /><path
     id="path1"
     d="M 510.92661,0.01736429 C 481.65873,-0.71530571 453.1613,21.802694 453.1613,56.085464 V 312.54198 L 603.19643,462.57708 759.41089,306.3626 c 21.85723,-21.85863 21.85723,-57.30082 0,-79.15946 L 548.71076,16.508464 C 537.69263,5.4895243 524.23019,0.35039429 510.92661,0.01736429 Z M 66.719194,20.269114 c -11.93717,0 -23.87455,4.55452 -32.9822,13.66241 -18.21529,18.2153 -18.21529,47.7491 0,65.96439 L 900.29852,966.45752 c 18.2144,18.2143 47.7473,18.2143 65.9617,0 18.219,-18.2191 18.219,-47.7473 0,-65.9617 L 99.701394,33.931524 c -9.10765,-9.10788 -21.04503,-13.66241 -32.9822,-13.66241 z M 546.45054,146.17157 667.06182,266.78287 546.45054,387.39419 Z m -148.31876,389.54138 -86.71902,86.72174 c -0.5406,0.48976 -1.07369,0.99724 -1.5961,1.51965 l -71.58349,71.58343 c -18.23908,18.24235 -18.23908,47.80955 0,66.05185 18.23862,18.2377 47.81003,18.2377 66.04912,0 l 71.5835,-71.58897 c 0.60916,-0.60637 1.19967,-1.23139 1.76826,-1.86108 l 75.52725,-75.5301 v 331.30595 c 0,49.8668 60.29149,74.83968 95.54946,39.577 l 148.603,-148.5975 -65.96441,-65.9617 -84.89881,84.8961 V 684.0317 Z"
     style="fill: #708190;fill-opacity:1;stroke:none;stroke-width:46.6432;stroke-dasharray:none" /></svg>
