<?xml version="1.0" encoding="UTF-8" standalone="no"?>
<!-- Uploaded to: SVG Repo, www.svgrepo.com, Generator: SVG Repo Mixer Tools -->

<svg
   width="716.16534"
   height="716.66797"
   viewBox="0 0 21.48496 21.500039"
   fill="#BEA966"
   version="1.1"
   id="svg2"
   xmlns="http://www.w3.org/2000/svg"
   xmlns:svg="http://www.w3.org/2000/svg">
  <defs
     id="defs2" />
  <path
     id="path1"
     style="baseline-shift:baseline;display:inline;overflow:visible;opacity:1;fill: #BEA966;fill-opacity:1;stroke:none;stroke-width:0;stroke-linecap:round;stroke-dasharray:none;enable-background:accumulate;stop-color:#000000;stop-opacity:1"
     d="M 10.750268,0 C 9.5620524,0 8.5800955,0.5474603 6.8244872,1.4687695 L 4.8245067,2.5175976 C 2.6728476,3.6467372 1.4368718,4.2608675 0.70144027,5.5098047 -0.03399953,6.7587351 2.4887182e-4,8.166596 2.4887182e-4,10.691426 v 0.117188 c 0,2.5248 -0.0342610018,3.932683 0.70119139818,5.181621 0.73544023,1.248939 1.97142343,1.863016 4.12306643,2.992206 l 1.9999805,1.048828 c 1.7555994,0.921295 2.7375442,1.46877 3.9257808,1.46877 1.188237,0 2.170191,-0.547475 3.925781,-1.46877 l 1.999981,-1.048828 c 2.151688,-1.129193 3.387624,-1.743284 4.123066,-2.992206 0.517003,-0.878168 0.647358,-1.869141 0.685547,-3.218731 A 0.75,0.75 0 0 0 20.756147,12 0.75,0.75 0 0 0 19.984643,12.728555 c -0.03601,1.27261 -0.155538,1.953319 -0.478535,2.501952 -0.459357,0.780077 -1.375632,1.294583 -3.527344,2.423789 l -1.99998,1.048828 c -1.176035,0.617157 -1.910938,0.989417 -2.478516,1.16795 v -8.658163 l 3.49998,-1.7500205 V 11.75004 a 0.75,0.75 0 0 0 0.75,0.75 0.75,0.75 0 0 0 0.75,-0.75 V 8.7128906 l 3.312188,-1.6560938 c 0.101744,0.4309185 0.151191,0.9720208 0.172207,1.7146877 a 0.75,0.75 0 0 0 0.771504,0.728555 0.75,0.75 0 0 0 0.728496,-0.7715044 C 21.446454,7.3789754 21.316143,6.3879354 20.799096,5.5098047 20.063663,4.2608849 18.827734,3.6467398 16.67603,2.5175976 L 14.676049,1.4687695 C 12.92045,0.54746 11.938484,0 10.750268,0 Z m 0,1.5 c 0.700384,0 1.472915,0.3756035 3.228516,1.296914 l 1.99998,1.0488282 c 1.63714,0.8591164 2.559089,1.3624554 3.10875,1.8976757 L 15.760034,7.40625 7.2607762,2.933789 7.5217528,2.796914 C 9.2773644,1.8756032 10.049884,1.5 10.750268,1.5 Z M 5.6949168,3.7549804 A 0.75,0.75 0 0 0 5.9006395,3.9140625 L 14.10769,8.234414 10.750268,9.9121285 2.4129637,5.7434765 C 2.9626234,5.2082403 3.8846055,4.7048884 5.5217723,3.8457422 Z M 1.6924364,7.0589648 10.000268,11.212911 v 8.658163 C 9.4326934,19.692541 8.6977925,19.32028 7.5217528,18.703125 L 5.5217723,17.654296 C 3.3700953,16.525088 2.4537684,16.010567 1.9944286,15.230508 1.5350802,14.450446 1.5002489,13.333414 1.5002489,10.808614 v -0.117189 c 0,-1.7929395 0.017523,-2.8759062 0.1921875,-3.6324602 z" />
</svg>
