<?xml version="1.0" encoding="UTF-8" standalone="no"?>
<!-- Uploaded to: SVG Repo, www.svgrepo.com, Generator: SVG Repo Mixer Tools -->

<svg
   width="666.66797"
   height="663.4668"
   viewBox="0 0 20.000039 19.904004"
   fill="#FFE397"
   version="1.1"
   id="svg4"
   xmlns="http://www.w3.org/2000/svg"
   xmlns:svg="http://www.w3.org/2000/svg">
  <defs
     id="defs4" />
  <path
     id="path1"
     d="M 10.00002,0 C 9.0557195,0 8.1778955,0.4606822 6.4222851,1.3819922 L 6.1006054,1.5508007 15.023614,6.6496875 19.040331,4.6413281 C 18.394133,3.9094981 17.351534,3.3623434 15.577735,2.4315234 L 13.577696,1.3819922 C 11.822096,0.4606822 10.94432,0 10.00002,0 Z M 4.5245507,2.3778515 4.4223047,2.4315234 C 2.6485647,3.3623434 1.605917,3.9094981 0.959707,4.6413281 l 9.040313,4.5202144 3.411211,-1.705605 z M 0.2516601,5.964375 C 2.01e-5,6.865605 0,8.0489425 0,9.9415425 v 0.1169545 c 0,2.524799 2.18e-5,3.787316 0.5974218,4.801815 0.59739,1.0145 1.6732229,1.579003 3.8248829,2.708203 l 1.9999804,1.049531 c 1.29295,0.6785 2.1098344,1.107157 2.8277344,1.285957 v -9.440507 z m 19.4967779,0 L 15.75,7.9635351 V 11.00004 c 0,0.414199 -0.3358,0.75 -0.75,0.75 -0.4142,0 -0.75,-0.335801 -0.75,-0.75 V 8.7135355 l -3.49998,1.7499615 v 9.440507 c 0.7179,-0.1788 1.534776,-0.607457 2.827676,-1.285957 l 2.000039,-1.049531 c 2.1517,-1.1292 3.227482,-1.693703 3.824883,-2.708203 0.5974,-1.0145 0.597422,-2.277016 0.597422,-4.801816 V 9.9415425 c 0,-1.8926 -2e-6,-3.0759375 -0.251602,-3.9771675 z"
     style="fill: #FFE397;fill-opacity:1;stroke:none;stroke-width:0;stroke-dasharray:none" />
</svg>
