<?xml version="1.0" encoding="UTF-8" standalone="no"?>
<!-- Uploaded to: SVG Repo, www.svgrepo.com, Generator: SVG Repo Mixer Tools -->

<svg
   width="666.66669"
   height="666.66669"
   viewBox="0 0 20.000001 20.000001"
   fill="#708190"
   version="1.1"
   id="svg2"
   sodipodi:docname="cpu_rev.svg"
   inkscape:version="1.4.2 (ebf0e940d0, 2025-05-08)"
   xmlns:inkscape="http://www.inkscape.org/namespaces/inkscape"
   xmlns:sodipodi="http://sodipodi.sourceforge.net/DTD/sodipodi-0.dtd"
   xmlns="http://www.w3.org/2000/svg"
   xmlns:svg="http://www.w3.org/2000/svg">
  <defs
     id="defs2" />
  <sodipodi:namedview
     id="namedview2"
     pagecolor="#ffffff"
     bordercolor="#000000"
     borderopacity="0.25"
     inkscape:showpageshadow="2"
     inkscape:pageopacity="0.0"
     inkscape:pagecheckerboard="0"
     inkscape:deskcolor="#d1d1d1"
     inkscape:zoom="0.37125"
     inkscape:cx="-195.2862"
     inkscape:cy="523.90572"
     inkscape:window-width="1920"
     inkscape:window-height="1038"
     inkscape:window-x="0"
     inkscape:window-y="0"
     inkscape:window-maximized="1"
     inkscape:current-layer="svg2" />
  <path
     d="m 11.9802,5.75 h -3.97 c -1.24997,0 -2.26997,1.01 -2.26997,2.27 v 3.97 c 0,1.25 1.01,2.27 2.26997,2.27 h 3.97 c 1.25,0 2.27,-1.01 2.27,-2.27 V 8.02 c 0,-1.26 -1.01,-2.27 -2.27,-2.27 z m -0.48,5.23 -0.89,1.55 c -0.13,0.23 -0.37,0.35 -0.61,0.35 -0.12,0 -0.25,-0.03 -0.35,-0.09 -0.34,-0.19 -0.46,-0.62 -0.26,-0.96 l 0.64,-1.11 h -0.56 c -0.45,0 -0.82,-0.2 -1.02,-0.54 -0.2,-0.34 -0.18,-0.76 0.05,-1.15 l 0.89,-1.55 c 0.2,-0.34 0.63,-0.45 0.96,-0.26 0.34,0.19 0.46,0.62 0.26,0.96 l -0.64,1.11 h 0.56 c 0.45,0 0.82,0.2 1.02,0.54 0.2,0.34 0.18,0.76 -0.05,1.15 z"
     fill="#708190"
     id="path1"
     style="fill: #708190;fill-opacity:1" />
  <path
     d="M 19.25,10.75 C 19.67,10.75 20,10.41 20,10 20,9.58 19.67,9.25 19.25,9.25 H 18 v -2.2 h 1.25 C 19.67,7.05 20,6.72 20,6.3 20,5.89 19.67,5.55 19.25,5.55 H 17.77 C 17.29,3.96 16.04,2.71 14.45,2.23 V 0.75 C 14.45,0.34 14.11,0 13.7,0 13.29,0 12.95,0.34 12.95,0.75 V 2 h -2.2 V 0.75 C 10.75,0.34 10.41,0 10,0 9.59,0 9.25,0.34 9.25,0.75 V 2 H 7.06 V 0.75 C 7.06,0.34 6.72,0 6.31,0 5.89,0 5.56,0.34 5.56,0.75 V 2.23 C 3.96,2.71 2.71,3.96 2.23,5.55 H 0.75 C 0.34,5.55 0,5.89 0,6.3 0,6.72 0.34,7.05 0.75,7.05 H 2 v 2.2 H 0.75 C 0.34,9.25 0,9.58 0,10 c 0,0.41 0.34,0.75 0.75,0.75 H 2 v 2.2 H 0.75 C 0.34,12.95 0,13.28 0,13.7 c 0,0.41 0.34,0.75 0.75,0.75 h 1.48 c 0.47,1.59 1.73,2.84 3.33,3.32 v 1.48 c 0,0.41 0.33,0.75 0.75,0.75 0.41,0 0.75,-0.34 0.75,-0.75 V 18 h 2.2 v 1.25 c 0,0.41 0.33,0.75 0.75,0.75 0.41,0 0.75,-0.34 0.75,-0.75 V 18 h 2.19 v 1.25 c 0,0.41 0.34,0.75 0.75,0.75 0.41,0 0.75,-0.34 0.75,-0.75 v -1.48 c 1.59,-0.48 2.84,-1.73 3.32,-3.32 h 1.48 c 0.42,0 0.75,-0.34 0.75,-0.75 0,-0.42 -0.33,-0.75 -0.75,-0.75 H 18 v -2.2 z m -3.99,1.51 c 0,1.65 -1.35,3 -3,3 H 7.74 c -1.65,0 -3,-1.35 -3,-3 V 7.74 c 0,-1.65 1.35,-3 3,-3 h 4.52 c 1.65,0 3,1.35 3,3 z"
     fill="#708190"
     id="path2"
     style="fill: #708190;fill-opacity:1" />
</svg>
