<?xml version="1.0" encoding="UTF-8" standalone="no"?>
<!-- Created with Inkscape (http://www.inkscape.org/) -->

<svg
   width="117.68834mm"
   height="11.483523mm"
   viewBox="0 0 117.68834 11.483523"
   version="1.1"
   id="svg1"
   xml:space="preserve"
   xmlns="http://www.w3.org/2000/svg"
   xmlns:svg="http://www.w3.org/2000/svg"><defs
     id="defs1" /><g
     id="layer1"
     transform="translate(-47.955329,-111.35441)"><g
       id="g5"><g
         id="g4"
         style="opacity:1;fill: #BEA966;fill-opacity:1"
         transform="translate(-25.933735,-35.105422)"><path
           id="path1"
           style="opacity:1;fill: #BEA966;fill-opacity:1;stroke:none;stroke-width:0;stroke-opacity:1"
           d="m 152.87542,149.01829 c -7.27251,0.12129 -10.12068,1.82927 -11.97911,3.18431 6.23882,-0.18582 11.96578,-0.13015 20.21685,1.02216 a 5.3409762,5.3409762 0 0 1 -0.0987,-1.02216 5.3409762,5.3409762 0 0 1 0.73536,-2.70475 c -3.53446,-0.38393 -6.45023,-0.51998 -8.8744,-0.47956 z m 18.75493,2.34611 a 5.3409762,5.3409762 0 0 1 0.0661,0.8382 5.3409762,5.3409762 0 0 1 -0.81494,2.83497 c 10.56647,1.7424 18.33073,-0.74329 20.69589,-2.91404 -6.72441,0.39307 -13.50776,0.39788 -19.9471,-0.75913 z" /><path
           style="baseline-shift:baseline;display:inline;overflow:visible;opacity:1;vector-effect:none;fill: #BEA966;fill-opacity:1;stroke:none;enable-background:accumulate;stop-color:#000000;stop-opacity:1"
           d="m 166.35547,146.46094 c -3.16592,0 -5.74024,2.57627 -5.74024,5.74218 1e-5,3.16592 2.57433,5.74024 5.74024,5.74024 3.16591,0 5.74023,-2.57432 5.74023,-5.74024 1e-5,-3.16591 -2.57431,-5.74218 -5.74023,-5.74218 z m 0,0.80078 c 2.73357,0 4.94141,2.20784 4.9414,4.9414 0,2.73357 -2.20784,4.93946 -4.9414,4.93946 -2.73356,-1e-5 -4.9414,-2.2059 -4.94141,-4.93946 0,-2.73356 2.20785,-4.9414 4.94141,-4.9414 z"
           id="path2" /><circle
           style="opacity:1;fill: #BEA966;fill-opacity:1;stroke:none;stroke-width:0.39838;stroke-dasharray:none;stroke-opacity:1"
           id="path2-7"
           cx="132.73039"
           cy="151.34052"
           r="2.6596773" /></g><g
         id="g3"
         transform="translate(-25.608846,-50.494826)"
         style="opacity:1;fill: #BEA966;fill-opacity:1"><path
           id="path1-3"
           style="opacity:1;fill: #BEA966;fill-opacity:1;stroke:none;stroke-width:0;stroke-opacity:1"
           d="m 112.26615,164.40659 c 7.27251,0.12129 10.12068,1.82927 11.97911,3.18431 -6.23882,-0.18582 -11.96578,-0.13015 -20.21685,1.02216 a 5.3409762,5.3409762 0 0 0 0.0987,-1.02216 5.3409762,5.3409762 0 0 0 -0.73536,-2.70475 c 3.53446,-0.38393 6.45023,-0.51998 8.8744,-0.47956 z m -18.754925,2.34611 a 5.3409762,5.3409762 0 0 0 -0.0661,0.8382 5.3409762,5.3409762 0 0 0 0.81494,2.83497 c -10.56647,1.7424 -18.33073,-0.74329 -20.69589,-2.91404 6.72441,0.39307 13.50776,0.39788 19.9471,-0.75913 z" /><path
           style="baseline-shift:baseline;display:inline;overflow:visible;opacity:1;vector-effect:none;fill: #BEA966;fill-opacity:1;stroke:none;enable-background:accumulate;stop-color:#000000"
           d="m 98.786104,161.84924 c 3.165916,0 5.740236,2.57627 5.740236,5.74218 -1e-5,3.16592 -2.57433,5.74024 -5.740236,5.74024 -3.16591,0 -5.740229,-2.57432 -5.740229,-5.74024 -10e-6,-3.16591 2.574309,-5.74218 5.740229,-5.74218 z m 0,0.80078 c -2.73357,0 -4.941409,2.20784 -4.941399,4.9414 0,2.73357 2.207839,4.93946 4.941399,4.93946 2.733556,-1e-5 4.941396,-2.2059 4.941406,-4.93946 0,-2.73356 -2.20785,-4.9414 -4.941406,-4.9414 z"
           id="path2-6" /></g></g></g></svg>
