<?xml version="1.0" encoding="UTF-8" standalone="no"?>
<!-- Created with Inkscape (http://www.inkscape.org/) -->

<svg
   width="81.148064mm"
   height="11.081742mm"
   viewBox="0 0 81.148064 11.081742"
   version="1.1"
   id="svg1"
   xmlns="http://www.w3.org/2000/svg"
   xmlns:svg="http://www.w3.org/2000/svg">
  <defs
     id="defs1" />
  <g
     id="layer1"
     transform="translate(-69.056248,-134.67289)">
    <g
       id="g1">
      <path
         style="baseline-shift:baseline;display:inline;overflow:visible;opacity:1;vector-effect:none;stroke-miterlimit:10;enable-background:accumulate;stop-color:#000000;stop-opacity:1"
         d="m 109.70898,134.67383 -2.36718,1.99609 c -0.22844,0.17005 -0.48519,0.24853 -0.72852,0.38281 -0.74955,-0.28848 -2.32031,-0.89257 -2.32031,-0.89257 l -0.002,-0.002 c 0,0 -0.53599,-0.19663 -1.10352,-0.17773 -0.28376,0.009 -0.58513,0.0718 -0.82812,0.26367 -0.243,0.19188 -0.40598,0.5112 -0.42188,0.95508 -0.0137,0.38312 0.23764,0.69117 0.59961,0.86133 0.36197,0.17015 0.84391,0.2377 1.39258,0.21484 0.82184,-0.0342 1.77906,-0.35622 2.70312,-0.83789 0.86138,0.33151 1.28752,0.49545 2.54883,0.98047 l -3.5625,1.38867 -1.81641,-0.63477 c -3.876078,-1.43901 -5.744367,-1.31314 -6.679683,-0.75195 -0.927733,0.55664 -0.829855,1.53017 -0.828125,1.54688 0.02685,0.96984 0.577857,1.55415 1.335937,1.80273 0.760541,0.24939 1.723166,0.21073 2.675781,0.0625 1.90523,-0.29646 3.7832,-1.05273 3.7832,-1.05273 l 1.53711,-0.59766 3.51758,1.22852 -4.09961,1.58398 -0.38476,-0.19922 -0.004,-0.002 c 0,0 -0.85265,-0.3926 -1.72461,-0.56641 -0.43598,-0.0869 -0.87921,-0.12477 -1.24805,-0.008 -0.18442,0.0585 -0.35285,0.16122 -0.4707,0.32031 -0.11785,0.1591 -0.17969,0.36707 -0.17969,0.61328 0,0.42363 0.24557,0.71921 0.56446,0.84375 0.31888,0.12455 0.70055,0.1216 1.07617,0.0781 0.75123,-0.0869 1.48437,-0.35938 1.48437,-0.35938 h 0.002 l 0.86523,-0.33398 4.58594,2.37305 4.73828,-2.52735 0.78516,0.27539 h 0.002 c 0.002,6.5e-4 0.72962,0.2622 1.4707,0.39063 0.371,0.0643 0.74383,0.0994 1.05469,0.0391 0.15543,-0.0302 0.30159,-0.0864 0.41406,-0.19141 0.11248,-0.10504 0.17883,-0.26319 0.17774,-0.43554 -0.003,-0.49801 -0.28177,-0.83365 -0.65235,-0.97657 -0.37058,-0.14291 -0.82145,-0.13515 -1.26367,-0.0781 -0.88444,0.11406 -1.75,0.45117 -1.75,0.45117 l -0.01,0.004 -0.25977,0.13867 -4.15234,-1.44922 3.37109,-1.30273 c 0.0925,0.0355 0.22997,0.0872 0.31836,0.12109 0.55453,0.2125 1.02465,0.39293 1.36719,0.52344 0.34253,0.1305 0.54722,0.20785 0.60742,0.22851 1.74456,0.59889 3.49043,1.05615 4.83008,1.05469 0.66982,-7.3e-4 1.2439,-0.11451 1.66406,-0.41211 0.42016,-0.2976 0.65827,-0.78718 0.64648,-1.43555 -0.0169,-0.93318 -0.55046,-1.51556 -1.28711,-1.79101 -0.73664,-0.27545 -1.67196,-0.28777 -2.59961,-0.19531 -1.85528,0.18492 -3.6875,0.80859 -3.6875,0.80859 l -0.004,0.002 -1.85547,0.7168 c -0.99844,-0.38284 -2.162,-0.82987 -3.37695,-1.29687 l 2.53906,-0.99024 c 0.47899,0.28751 0.95299,0.60373 1.45508,0.7793 0.75619,0.26442 1.52027,0.35622 2.19336,0.0918 0.45746,-0.17962 0.75259,-0.44688 0.89062,-0.75195 0.13803,-0.30507 0.10784,-0.63954 -0.0508,-0.91211 -0.31725,-0.54514 -1.1149,-0.8558 -2.05078,-0.5332 h -0.002 l -2.41407,0.94141 c -0.18324,-0.11376 -0.38198,-0.17788 -0.55664,-0.29883 -1.32092,-0.91471 -2.33984,-1.95313 -2.33984,-1.95313 z m -0.01,0.4707 c 0.10299,0.10375 0.98232,0.99941 2.26367,1.88672 0.10135,0.0702 0.22347,0.10737 0.32813,0.17578 l -2.61914,1.02149 c -1.31605,-0.50599 -1.66578,-0.64063 -2.625,-1.00977 0.16683,-0.10234 0.34791,-0.14844 0.50781,-0.26758 l 0.004,-0.004 z m -6.5,1.1875 c 0.47626,-0.0159 0.9707,0.1582 0.9707,0.1582 0.001,5.6e-4 1.43628,0.5518 2.02735,0.7793 -0.79466,0.36721 -1.59912,0.62579 -2.28321,0.6543 -0.50967,0.0212 -0.94361,-0.0506 -1.22656,-0.1836 -0.28295,-0.13301 -0.4068,-0.2931 -0.39844,-0.52734 0.0132,-0.36857 0.12973,-0.56558 0.28907,-0.69141 0.15933,-0.12582 0.38296,-0.18152 0.62109,-0.18945 z m 13.0918,0.0449 c 0.27882,0.0831 0.48376,0.24795 0.59179,0.4336 0.10804,0.18564 0.12653,0.38789 0.0352,0.58984 -0.0914,0.20195 -0.30314,0.41284 -0.69922,0.56836 h -0.002 c -0.56164,0.22064 -1.23747,0.15055 -1.94727,-0.0977 -0.38449,-0.13445 -0.75719,-0.39608 -1.14062,-0.61132 l 2.125,-0.82813 c 0.40563,-0.13936 0.7588,-0.13761 1.03711,-0.0547 z m -16.945317,2.02735 c 1.018587,0.0749 2.419057,0.3869 4.337887,1.09961 h 0.002 l 1.42968,0.49804 -1.15625,0.45117 h -0.002 c 0,0 -1.85534,0.74343 -3.70508,1.03125 -0.924864,0.14392 -1.845653,0.16894 -2.509763,-0.0488 -0.664109,-0.21777 -1.075111,-0.62985 -1.095703,-1.48438 l -0.002,-0.01 v -0.008 c 0,0 -0.112909,-0.74709 0.660156,-1.21093 0.386533,-0.23192 1.022425,-0.39324 2.041016,-0.31836 z m 19.771487,0.13281 c 0.89997,-0.0897 1.79746,-0.0677 2.44336,0.17383 0.6459,0.24151 1.04392,0.65903 1.05859,1.46875 0.0103,0.5643 -0.1695,0.90791 -0.49805,1.14062 -0.32854,0.23271 -0.8321,0.34502 -1.46093,0.34571 -1.25768,0.001 -2.98897,-0.44202 -4.7168,-1.03516 -0.0261,-0.009 -0.25162,-0.0943 -0.59375,-0.22461 -0.33085,-0.12605 -0.79155,-0.30055 -1.32227,-0.50391 l 1.48243,-0.57422 0.008,-0.002 c 0.008,-0.003 1.80359,-0.61004 3.59961,-0.78906 z m -9.44727,0.0703 c 0.098,0.0377 0.0971,0.0365 0.19531,0.0742 1.14455,0.43997 2.19977,0.84406 3.18165,1.2207 l -3.39454,1.3125 -3.52148,-1.23047 z m -0.01,2.98242 4.23632,1.47852 -4.2871,2.28711 -4.14454,-2.14453 z m -7.86914,0.96485 c 0.26364,-0.0836 0.66297,-0.0636 1.07031,0.0176 0.81467,0.16238 1.64844,0.54101 1.64844,0.54101 l 0.0977,0.0508 -0.57031,0.21875 c 0,0 -0.71143,0.26161 -1.4043,0.3418 -0.34643,0.0401 -0.68555,0.0284 -0.9082,-0.0586 -0.22265,-0.087 -0.33789,-0.20618 -0.33789,-0.51368 0,-0.18929 0.0427,-0.31436 0.10937,-0.40429 0.0666,-0.0899 0.1631,-0.15156 0.29493,-0.19336 z m 14.59179,0.0449 c 0.41261,-0.0532 0.81921,-0.0465 1.0918,0.0586 0.27259,0.10513 0.42341,0.2645 0.42578,0.64844 5.8e-4,0.0923 -0.0222,0.13447 -0.0664,0.17578 -0.0442,0.0413 -0.12381,0.0794 -0.23828,0.10156 -0.22893,0.0444 -0.57734,0.0217 -0.92773,-0.0391 -0.70078,-0.12144 -1.41406,-0.375 -1.41406,-0.375 l -0.46094,-0.16015 c 0.0733,-0.0278 0.80321,-0.30871 1.58984,-0.41016 z"
         id="path72" />
      <path
         style="baseline-shift:baseline;display:inline;overflow:visible;opacity:1;vector-effect:none;stroke-miterlimit:10;enable-background:accumulate;stop-color:#000000;stop-opacity:1"
         d="m 122.48633,138.89062 v 0.35352 h 27.71875 v -0.35352 z"
         id="path73" />
      <path
         style="baseline-shift:baseline;display:inline;overflow:visible;opacity:1;vector-effect:none;stroke-miterlimit:10;enable-background:accumulate;stop-color:#000000;stop-opacity:1"
         d="m 122.73633,140.03711 v 0.35351 h 23.93945 v -0.35351 z"
         id="path74" />
      <path
         style="baseline-shift:baseline;display:inline;overflow:visible;opacity:1;vector-effect:none;stroke-miterlimit:10;enable-background:accumulate;stop-color:#000000;stop-opacity:1"
         d="m 122.37695,141.18359 v 0.35352 h 27.82813 v -0.35352 z"
         id="path75" />
      <path
         style="baseline-shift:baseline;display:inline;overflow:visible;opacity:1;vector-effect:none;stroke-miterlimit:10;enable-background:accumulate;stop-color:#000000;stop-opacity:1"
         d="m 69.056641,138.89062 v 0.35352 h 27.632812 v -0.35352 z"
         id="path76" />
      <path
         style="baseline-shift:baseline;display:inline;overflow:visible;opacity:1;vector-effect:none;stroke-miterlimit:10;enable-background:accumulate;stop-color:#000000;stop-opacity:1"
         d="m 72.583984,140.03711 v 0.35351 h 23.939453 v -0.35351 z"
         id="path77" />
      <path
         style="baseline-shift:baseline;display:inline;overflow:visible;opacity:1;vector-effect:none;stroke-miterlimit:10;enable-background:accumulate;stop-color:#000000;stop-opacity:1"
         d="m 69.056641,141.18359 v 0.35352 h 28.085937 v -0.35352 z"
         id="path78" />
    </g>
  </g>
</svg>
