<?xml version="1.0" encoding="UTF-8" standalone="no"?>
<!-- Created with Inkscape (http://www.inkscape.org/) -->

<svg
   width="345.58432mm"
   height="28.41387mm"
   viewBox="0 0 345.58432 28.41387"
   version="1.1"
   id="svg1"
   xmlns="http://www.w3.org/2000/svg"
   xmlns:svg="http://www.w3.org/2000/svg">
  <defs
     id="defs1" />
  <g
     id="layer1"
     transform="translate(-62.76809,-141.43158)">
    <path
       d="m 67.566392,152.94737 q -1.226232,0.42669 -2.345838,0.85303 -1.1196,0.37307 -2.452464,0.85303 0,-1.33288 0,-2.50581 0,-1.17287 0,-2.55909 1.012975,-0.47974 2.239207,-1.01298 1.27955,-0.53335 3.145555,-1.33282 -0.21323,1.86601 -0.37318,3.19883 -0.106615,1.27955 -0.21323,2.50581 z m 28.256649,-7.30409 q 1.866005,-1.27954 3.465439,-2.13257 1.54612,-0.7997 3.78532,-1.70606 0.58646,-0.15973 1.17292,-0.2664 0.42652,-0.10667 0.85303,-0.10667 0.21323,0 0.42652,0 -3.99858,1.91935 -6.984194,5.0649 -2.985605,3.09222 -6.291105,6.50434 0.05306,-2.77232 0.853036,-4.31843 0.799711,-1.54616 2.719034,-3.03894 z m 48.196249,18.28687 q 4.31846,1.75934 8.79688,2.82565 4.47841,1.01298 9.11677,1.38616 2.93229,0.21334 5.81127,-0.21334 2.87898,-0.47974 5.65133,-1.54616 0.42651,-0.15973 0.90634,-0.32001 0.47985,-0.10667 1.01298,-0.15973 -0.69309,0.95964 -1.70606,1.27954 -0.95966,0.32001 -1.97264,0.58647 -4.31847,1.11959 -8.74357,1.17293 -0.15995,0 -0.3199,0 -4.21184,0 -8.47699,-0.53335 -5.49139,-0.69308 -10.7162,-2.29253 -5.22482,-1.54611 -10.28969,-3.73196 -3.41212,-1.49283 -6.82425,-3.03894 -3.41212,-1.49283 -6.82424,-3.03894 -0.53313,-0.2664 -1.1196,-0.53335 -0.53313,-0.2664 -1.11961,-0.47974 -1.97263,-0.69308 -3.94527,-1.17293 -2.02595,-0.47974 -4.15852,1.01298 0.58646,-1.22621 1.54611,-1.97263 0.90635,-0.79969 1.91933,-1.43949 2.13257,-1.49278 4.47841,-2.50576 2.34583,-1.01298 4.90492,-1.43949 1.01298,-0.15973 1.97264,-0.15973 1.27954,0 2.45246,0.2664 2.07927,0.47974 3.6787,2.50581 1.17292,1.43949 2.34583,2.82565 1.17292,1.38616 2.39915,2.77232 0.47985,0.53335 1.49281,1.81273 1.06629,1.27955 2.13258,2.61237 0.69308,0.79975 1.33285,1.54617 0.63978,0.74636 0.95967,1.17287 0.3199,1.33288 -0.79972,0.79975 -1.1196,-0.47974 -2.77235,-1.75939 -0.69309,-0.53335 -1.38618,-1.17293 -0.7464,-0.58647 -1.43948,-1.22621 -1.65275,-1.81268 -3.83865,-4.21187 -2.13257,-2.39914 -3.89195,-4.1052 -0.53313,-0.58647 -1.22623,-1.01298 -0.7464,-0.47974 -1.4928,-0.58647 -2.02595,-0.32001 -3.99859,0.0553 -1.97263,0.37307 -3.83863,1.54611 6.2911,2.61243 10.66288,4.53172 4.4251,1.91934 7.41071,3.25222 1.91932,0.85303 3.30549,1.54611 1.43949,0.63975 2.45247,1.1196 1.866,0.90636 2.71903,1.33288 0.85303,0.42668 1.43949,0.69308 z m 11.35597,-18.44682 q 0.74641,-0.69308 1.49281,-1.33288 0.79971,-0.69308 1.75937,-1.54611 0.10662,1.7594 0.15995,3.14556 0.10662,1.33288 0.15995,2.77237 2.18589,-0.9597 4.0519,-2.29252 1.866,-1.33288 4.53172,-1.4395 -1.65274,1.27955 -3.14555,2.34581 -1.4928,1.11965 -2.87898,2.29252 -1.33285,1.17293 -2.6124,2.50581 -1.33286,1.38616 -2.98561,3.03889 0.42652,-2.71899 0.7464,-5.01151 0.26656,-2.34586 -1.27955,-4.47844 z m 48.94265,16.04762 q 0.10661,-2.82565 0.95965,-5.59797 0.90635,-2.77238 0.37318,-5.97121 -2.55909,1.70606 -3.51875,4.21181 -0.95966,2.45248 -2.39915,4.85162 0,-0.7997 -0.0531,-1.33288 0,-0.53335 -0.0531,-1.01293 -0.0531,-0.47973 -0.10661,-0.90636 0,-1.1196 0.42651,-2.0793 0.63978,-1.33282 2.02595,-2.3458 0.74641,-0.58647 1.4928,-1.22621 0.6931,-0.69314 1.54613,-1.22627 0.69308,-0.42668 1.59943,-0.79969 0.85303,-0.32001 2.13257,-0.90637 0.0531,0.58647 0.0531,1.1196 0,3.73202 -1.38617,6.66429 -1.59943,3.3055 -3.09223,6.55767 z m 70.58831,6.61101 q -4.37177,1.17293 -8.74357,1.17293 -0.10661,0 -0.15995,0 -4.31846,0 -8.69025,-0.53335 -5.97121,-0.69313 -11.62254,-2.55909 -5.65133,-1.81273 -11.14272,-4.15853 -0.3199,-0.10667 -0.69309,-0.32001 -0.3199,-0.21334 -1.06629,-0.6398 1.49281,0 2.66573,0 1.17291,0 2.2392,-0.10667 1.06629,-0.0553 2.1859,-0.15973 1.06628,-0.15973 2.13257,-0.37307 1.06629,-0.32001 2.18589,-0.74642 1.1196,-0.47974 2.50578,-1.01298 -0.63977,-0.42668 -1.01297,-0.63974 -0.37318,-0.2664 -0.69309,-0.42668 -3.6787,-1.54611 -7.35739,-3.09228 -3.73201,-1.54611 -7.35739,-3.19883 -2.82567,-1.33288 -5.5447,-1.17293 -2.71904,0.15973 -5.38476,1.49283 -0.42651,0.21334 -0.85304,0.42668 -0.42651,0.21334 -0.85303,0.42668 -0.10661,0.10667 -0.21323,0.2664 -0.053,0.15973 -0.26656,0.42668 2.07926,-0.42668 3.99858,-0.21334 1.91932,0.2664 3.78533,0.90636 1.97263,0.69308 3.41212,1.97263 1.38617,1.22626 2.13258,3.25217 0.0531,0.15973 0.10661,0.37307 0.0531,0.21334 0.0531,0.37307 0,0.10667 -0.10661,0.2664 -0.0531,0.10667 -0.15995,0.37307 -0.95966,-1.70606 -2.23921,-2.98561 -1.33286,-1.27954 -3.19886,-1.75939 -1.70606,-0.42668 -3.46544,-0.6398 -1.75938,-0.21334 -3.57207,0.0553 -1.1196,0.15973 -2.29252,0.2664 -1.1196,0.10667 -2.29252,0.15972 -0.26657,0.0553 -0.53313,0 -0.26657,-0.0553 -0.69309,-0.10667 0.79972,-1.43949 1.97263,-2.23924 1.17292,-0.7997 2.34584,-1.59939 1.866,-1.17293 3.89195,-2.0793 2.07926,-0.85303 4.31847,-1.33282 1.33286,-0.2664 2.61241,-0.2664 0.26656,0 0.53313,0 1.54611,0.10667 2.9856,0.69314 5.01156,2.0259 10.07643,4.15847 5.01156,2.0793 10.18306,4.31849 -1.81269,2.34586 -4.31847,3.03894 -2.50578,0.69308 -4.95824,1.65273 2.39915,1.27954 4.85161,2.13257 2.45246,0.85303 4.90493,1.65278 4.58504,1.49278 9.27671,2.13258 4.69167,0.63974 9.49001,0.26639 1.65272,-0.10667 3.30545,-0.58646 1.65278,-0.47974 3.25222,-0.90637 0.42668,-0.0553 0.85303,-0.15972 0.42668,-0.10667 0.85303,-0.21335 -0.69313,1.01299 -1.65278,1.38616 -1.01298,0.32002 -1.97262,0.58647 z m 39.71923,1.54611 q -1.54611,-0.26639 -3.03889,-0.63974 -1.54616,-0.42668 -2.9856,-1.01298 -7.35743,-3.03894 -14.7148,-6.1845 -7.35742,-3.09222 -14.87474,-6.29111 -0.69308,0.15973 -1.54611,0.32001 -0.85303,0.15973 -1.81268,0.37307 -0.10667,-0.58646 -0.21334,-1.17293 -0.10667,-0.58646 -0.21334,-1.06631 -5.22485,-2.71904 -9.1701,-2.55909 -3.99858,0.15973 -7.25076,3.25217 3.09224,-0.15973 5.9179,0.10667 2.82566,0.32001 5.11816,2.3458 0.85303,0.74642 1.4395,1.81268 0.6398,1.01298 1.17293,2.13257 -2.71904,-3.99853 -6.45104,-4.42504 -3.78533,-0.42668 -7.78391,-0.10667 -0.85303,0.0553 -1.81269,0.15973 -0.95966,0.10667 -2.23921,0.2664 0.53313,-0.63975 0.79972,-1.01298 0.26657,-0.42668 0.58646,-0.63975 2.66572,-2.07929 5.5447,-3.73202 2.87898,-1.59944 6.34442,-1.81267 0.53313,-0.0553 1.01297,-0.0553 0.90636,0 1.81267,0.10667 1.43949,0.15973 2.77237,0.53335 1.27955,0.32001 2.50576,0.58646 1.22626,0.21334 2.55909,-0.74641 0.21334,0.74641 0.37307,1.27954 0.15972,0.53335 0.37306,1.22621 3.35885,1.38616 6.77097,2.87899 3.41212,1.49283 6.82424,2.93227 4.95823,2.13258 9.91646,4.21187 4.95828,2.13258 9.91651,4.15854 1.91929,0.85303 3.94525,1.38616 1.97263,0.47974 4.15854,-0.53335 -1.17293,1.38616 -2.66571,1.81267 -0.90636,0.2664 -1.86601,0.2664 -0.58646,0 -1.22626,-0.15973 z m -7.41071,-24.20474 q 0.74642,-0.69308 1.49283,-1.33288 0.7997,-0.69308 1.75934,-1.54611 0.10667,1.7594 0.15973,3.14556 0.10667,1.33288 0.15973,2.77237 2.18591,-0.9597 4.05192,-2.29252 1.86601,-1.33288 4.53172,-1.4395 -1.65273,1.27955 -3.14556,2.34581 -1.49277,1.11965 -2.87899,2.29252 -1.33282,1.17293 -2.61237,2.50581 -1.33288,1.38616 -2.9856,3.03889 0.42668,-2.71899 0.74636,-5.01151 0.26639,-2.34586 -1.27955,-4.47844 z m 54.96721,19.67303 q 2.13258,0.95964 4.37177,1.54611 2.23919,0.6398 4.85161,-0.74642 -0.90636,1.54617 -2.50575,2.29253 -1.11965,0.47974 -2.3992,0.47974 -0.53335,0 -1.11959,-0.0553 -1.17293,-0.21334 -2.34581,-0.53335 -1.22626,-0.32001 -2.34586,-0.74642 -3.73202,-1.54611 -7.46404,-3.09222 -3.73196,-1.59944 -7.4107,-3.14555 -3.09222,-1.33288 -6.13116,-2.66571 -3.09222,-1.33288 -6.13116,-2.61242 -1.27955,-0.53335 -2.66571,-0.90637 -1.33282,-0.37307 -2.93227,0.58647 0.0553,-1.49278 -0.69308,-2.13258 -0.69313,-0.69308 -1.81273,-1.01298 -0.79969,-0.21334 -1.54611,-0.58641 -0.74641,-0.32001 -1.54611,-0.6398 -1.38616,-0.47974 -2.39914,-0.69308 -1.01298,-0.15973 -2.45247,0.42668 -0.2664,0.0553 -0.32001,0.0553 -0.10667,0 -0.37307,0.0553 -0.0553,0 -0.15973,0.0553 -0.15973,0 -0.53335,-0.0553 0.63974,-0.79969 1.49277,-1.27954 0.85303,-0.53335 1.7594,-0.58647 1.01298,-0.10667 2.07924,-0.10667 0.21334,0 0.37307,0 1.27954,0.0553 2.39914,0.32001 1.59944,0.42668 3.14555,0.69308 1.49278,0.2664 3.30551,-0.79969 0.10667,0.85303 0.21334,1.43944 0.0553,0.58646 0.15973,1.17293 10.39631,4.4251 31.13565,13.2753 z m 30.60247,0 q 2.13257,0.95964 4.37182,1.54611 2.23919,0.6398 4.85161,-0.74642 -0.90636,1.54617 -2.50581,2.29253 -1.11959,0.47974 -2.39914,0.47974 -0.53335,0 -1.11959,-0.0553 -1.17293,-0.21334 -2.34586,-0.53335 -1.22621,-0.32001 -2.34581,-0.74642 -3.73202,-1.54611 -7.46404,-3.09222 -3.73202,-1.59944 -7.4107,-3.14555 -3.09222,-1.33288 -6.13116,-2.66571 -3.09222,-1.33288 -6.13116,-2.61242 -1.27955,-0.53335 -2.66571,-0.90637 -1.33288,-0.37307 -2.93232,0.58647 0.0553,-1.49278 -0.69308,-2.13258 -0.69308,-0.69308 -1.81268,-1.01298 -0.79969,-0.21334 -1.54611,-0.58641 -0.74641,-0.32001 -1.54611,-0.6398 -1.38621,-0.47974 -2.39914,-0.69308 -1.01298,-0.15973 -2.45247,0.42668 -0.2664,0.0553 -0.32001,0.0553 -0.10667,0 -0.37307,0.0553 -0.0553,0 -0.15973,0.0553 -0.15973,0 -0.53335,-0.0553 0.6398,-0.79969 1.49283,-1.27954 0.85303,-0.53335 1.75939,-0.58647 1.01298,-0.10667 2.07924,-0.10667 0.21334,0 0.37307,0 1.27955,0.0553 2.3992,0.32001 1.59939,0.42668 3.14555,0.69308 1.49278,0.2664 3.30545,-0.79969 0.10667,0.85303 0.21334,1.43944 0.0553,0.58646 0.15973,1.17293 10.39631,4.4251 31.1356,13.2753 z m 12.1557,-12.6355 q -1.27954,0.47974 -2.18591,0.63974 -0.53335,0.0553 -1.65272,0.0553 -0.74642,0 -1.7594,-0.0553 -0.15973,-0.47974 -0.15973,-0.95964 0,-1.06632 0.69314,-2.18591 1.01292,-1.65273 2.9856,-2.50576 1.1196,-0.42668 2.45242,-0.53335 0.15973,0 0.32002,0 1.17293,0 2.45247,0.42668 0.21334,0.42669 0.2664,1.27955 0,0.0553 0,0.0553 0,0.90636 -0.58647,1.75939 -0.32001,0.58647 -0.90631,1.06626 -0.58646,0.53335 -1.91934,0.9597 z m -2.82565,0 q 1.17293,-0.37307 1.70606,-0.74642 0.53335,-0.37306 1.33288,-1.54611 0.2664,-0.53335 0.58641,-1.17293 0.10667,-0.26639 0.10667,-0.58646 0,-0.37307 -0.21334,-0.7997 -1.27955,0.0553 -2.13258,0.7997 -0.90636,0.74641 -1.17293,1.17293 -0.2664,0.79969 -0.37307,1.54611 0,0.15973 0,0.32001 0,0.53335 0.15973,1.01298 z"
       id="text1"
       style="font-size:9.87777px;font-family:Orokin;-inkscape-font-specification:Orokin;letter-spacing:0px;fill: #FBA27B;fill-opacity:1;stroke-width:0"
       aria-label="wake up Tenno" />
  </g>
</svg>
