<?xml version="1.0" encoding="UTF-8" standalone="no"?>
<!-- Uploaded to: SVG Repo, www.svgrepo.com, Generator: SVG Repo Mixer Tools -->

<svg
   height="734.83789"
   width="799.99866"
   version="1.1"
   id="_x32_"
   viewBox="0 0 511.99914 470.29625"
   xml:space="preserve"
   xmlns="http://www.w3.org/2000/svg"
   xmlns:svg="http://www.w3.org/2000/svg"><defs
   id="defs2" />
<style
   type="text/css"
   id="style1">
	.st0{fill: #FFE397;}
</style>
<path
   id="path1"
   class="st0"
   d="m 0,0 v 414.4975 h 41.19375 l 81.70375,55.79875 v -15.9425 -39.85625 h 99.625 v -31.88375 h -99.625 V 87.682501 L 41.19375,31.88375 H 250.0625 V 0 Z m 319.9825,42.5325 c -21.827,0 -39.5225,17.702001 -39.5225,39.530001 0,21.826999 17.6945,39.528749 39.5225,39.528749 21.826,0 39.52,-17.70175 39.52,-39.528749 0,-21.828 -17.693,-39.530001 -39.52,-39.530001 z m 19.415,92.12375 c -1.06262,0.0349 -1.75375,0.0913 -1.75375,0.0913 -1.238,0.101 -2.49025,0.26375 -3.73625,0.45875 -7.021,1.207 -13.32725,4.1175 -18.56625,8.2125 l -70.86,42.79 -44.62875,-24.98 c -6.92,-3.877 -15.6775,-1.573 -19.8025,5.215 l -0.5525,0.92625 c -2.039,3.37 -2.662,7.3955 -1.72,11.2175 0.957,3.799 3.37775,7.08325 6.76375,9.09125 l 53.18125,31.74375 c 6.609,3.954 14.68175,4.67125 21.89875,1.94625 l 44.87625,-16.97 14.93,60.2425 -63.02125,-0.2425 c -8.376,-0.031 -16.30825,3.69 -21.64125,10.12 -5.34,6.452 -7.4955,14.938 -5.9075,23.15 l 16.69625,86 c 1.853,9.528 10.87575,15.90275 20.47375,14.46375 l 0.715,-0.10875 c 9.505,-1.424 16.232,-9.995 15.36,-19.57 l -5.6525,-61.62125 87.6975,2.7725 41.07875,41.40375 c 5.722,5.753 12.26,10.673 19.39,14.565 l 61.02125,33.3175 c 8.554,4.428 19.0725,1.26075 23.7575,-7.14625 l 0.3425,-0.57625 c 4.672,-8.405 1.884,-18.97425 -6.32,-23.95625 l -58.11,-37.1475 -46.81375,-73.5625 -15.4125,-86.965 50.1375,-4.655 43.14875,27.915 c 5.799,3.737 13.459,2.68575 18.005,-2.50625 l 0.24875,-0.29625 c 5.044,-5.745 4.51475,-14.4795 -1.20625,-19.5625 L 454.7975,146.105 c -4.164,-3.698 -9.4895,-5.82975 -15.0625,-6.04875 l -96.35375,-5.36375 c -1.4865,-0.0855 -2.92112,-0.0711 -3.98375,-0.0362 z"
   style="stroke:none;stroke-width:0;stroke-dasharray:none" />
</svg>
