<?xml version="1.0" encoding="UTF-8" standalone="no"?>
<!-- Uploaded to: SVG Repo, www.svgrepo.com, Generator: SVG Repo Mixer Tools -->

<svg
   width="600.10553"
   height="666.7196"
   viewBox="0 0 18.003166 20.001588"
   fill="#FBA27B"
   version="1.1"
   id="svg1"
   xmlns="http://www.w3.org/2000/svg"
   xmlns:svg="http://www.w3.org/2000/svg">
  <defs
     id="defs1" />
  <path
     style="baseline-shift:baseline;display:inline;overflow:visible;opacity:1;fill: #FBA27B;stroke:none;stroke-width:0;stroke-linecap:round;stroke-linejoin:round;stroke-dasharray:none;enable-background:accumulate;stop-color:#000000;stop-opacity:1"
     d="m 9.0015818,0 c -2.7495796,0 -5,2.2504204 -5,5 V 5.1542969 C 3.3710304,5.1958626 2.6966541,5.1749405 2.1851755,5.4355469 1.4326359,5.8189823 0.82056411,6.4310541 0.43712871,7.1835938 -0.05008349,8.139855 0.00158181,9.120581 0.00158181,10.800781 v 3.398438 c 0,1.6802 -0.051648,2.660917 0.4355469,3.617187 0.3834435,0.752569 0.99551889,1.364644 1.74804679,1.748047 C 3.1414607,20.051738 4.122203,20 5.8023631,20 h 6.3984379 c 1.6802,0 2.660909,0.05168 3.617187,-0.435547 0.752557,-0.383411 1.364636,-0.99549 1.748047,-1.748047 0.487228,-0.956278 0.435547,-1.936987 0.435547,-3.617187 v -3.398438 c 0,-1.6802 0.0517,-2.660919 -0.435547,-3.6171872 C 17.182632,6.4310658 16.570557,5.8189904 15.817988,5.4355469 15.306492,5.1749315 14.632137,5.1958597 14.001582,5.1542969 V 5 c 0,-2.7495916 -2.250451,-5 -5.0000002,-5 z m 0,2 C 10.670233,2 12.001582,3.3313116 12.001582,5 H 6.0015818 c 0,-1.6687004 1.3313,-3 3,-3 z M 5.8023631,7 h 6.3984379 c 0.2907,0 0.554307,2.981e-4 0.792969,0.00195 0.0046,3.2e-5 0.0032,-3.39e-5 0.0078,0 1.13108,0.0084 1.638732,0.079497 1.908203,0.2167969 0.376431,0.1917965 0.68125,0.4965948 0.873047,0.8730471 0.166766,0.327275 0.218762,1.028787 0.218762,2.708987 v 3.398438 c 0,1.6802 -0.05198,2.381662 -0.21875,2.708984 -0.191789,0.376443 -0.496604,0.681258 -0.873047,0.873047 C 14.582463,17.948022 13.881001,18 12.200801,18 H 5.8023631 C 4.122203,18 3.4205535,17.947965 3.0933787,17.78125 2.7169266,17.589453 2.4121283,17.284634 2.2203318,16.908203 2.0535661,16.580874 2.0015818,15.879419 2.0015818,14.199219 v -3.398438 c 0,-1.6802 0.052002,-2.381705 0.21875,-2.708984 C 2.4121364,7.7153565 2.7169383,7.4105546 3.0933787,7.21875 3.362877,7.0814364 3.8704723,7.0103555 5.0015818,7.0019531 c 0.00457,-3.39e-5 0.00322,3.2e-5 0.00781,0 C 5.248088,7.000298 5.5116531,7 5.8023631,7 Z m 1.1992187,1 a 1,1 0 0 0 -1,1 v 0.5 h -0.5 a 1,1 0 0 0 -1,1 1,1 0 0 0 1,1 h 0.5 v 2 h -0.5 a 1,1 0 0 0 -1,1 1,1 0 0 0 1,1 h 0.5 V 16 a 1,1 0 0 0 1,1 1,1 0 0 0 1,-1 V 15.5 H 10.001582 V 16 a 1,1 0 0 0 1,1 1,1 0 0 0 1,-1 v -0.5 h 0.5 a 1,1 0 0 0 1,-1 1,1 0 0 0 -1,-1 h -0.5 v -2 h 0.5 a 1,1 0 0 0 1,-1 1,1 0 0 0 -1,-1 h -0.5 V 9 a 1,1 0 0 0 -1,-1 1,1 0 0 0 -1,1 V 9.5 H 8.0015818 V 9 a 1,1 0 0 0 -1,-1 z m 1,3.5 h 2.0000002 v 2 H 8.0015818 Z"
     id="path1" />
</svg>
