<?xml version="1.0" encoding="UTF-8" standalone="no"?>
<!-- Uploaded to: SVG Repo, www.svgrepo.com, Generator: SVG Repo Mixer Tools -->

<svg
   fill="#708190"
   version="1.1"
   id="Capa_1"
   width="800"
   height="800"
   viewBox="0 0 46.184 46.184"
   xml:space="preserve"
   xmlns="http://www.w3.org/2000/svg"
   xmlns:svg="http://www.w3.org/2000/svg"><defs
   id="defs5" />
<path
   id="path1"
   style="fill: #708190;fill-opacity:1;stroke:none;stroke-width:1.00004"
   d="m 29.953758,1.9736555 c -1.072356,0.039991 -1.773754,0.9796056 -1.773754,0.9796056 l 7.366255,7.4272329 -3.610108,4.259164 -3.225121,-0.941043 -1.783045,1.098042 c 0,0 3.539116,1.543026 4.239139,2.432056 0.701024,0.88903 1.625054,3.840172 1.625054,3.840172 l 1.699066,-0.895041 -0.793066,-3.885138 4.098152,-3.262104 7.025243,7.704246 c 0.002,0 1.584052,-0.64903 1.336044,-1.83207 -0.248008,-1.18304 -5.137159,-8.079266 -5.137159,-8.079266 0,0 4.153107,-4.0121289 4.428115,-4.4881451 0.273012,-0.4760159 1.325079,-1.5430703 -0.01596,-2.6461077 -1.342048,-1.1010372 -2.303103,-0.3889783 -2.778119,0.036036 -0.477016,0.4270144 -4.044122,3.6221056 -4.044122,3.6221056 0,0 -7.241242,-5.272187 -8.437282,-5.3651902 -0.07469,-0.00588 -0.147839,-0.00722 -0.219329,-0.00456 z M 4.6905761,3.4648028 c -0.3130407,0 -0.6260813,0.1199521 -0.8659496,0.3598202 -0.4797361,0.4797361 -0.4797361,1.2521631 0,1.7318993 L 8.9956543,10.72755 c -3.3483005,3.558948 -5.4024889,8.348818 -5.4024889,13.609438 0,3.659123 1.0130376,7.080223 2.4340855,9.3873 l 1.718053,-1.01501 C 6.501262,30.699211 5.5932387,27.625091 5.5932387,24.33798 c 0,-4.70926 1.8306598,-8.999159 4.8174773,-12.195369 L 21.584038,23.315933 C 14.479626,29.79501 7.554392,35.424204 5.7162306,35.657341 4.8092001,35.722343 4.2372191,35.511365 4.0112116,35.023348 3.756203,34.46633 3.4491906,34.106288 4.0982123,33.454265 L 2.2421485,29.317146 c -1.77205971,1.78206 -2.85913339,5.212187 -1.86309979,7.37726 0.86802929,1.888064 2.73511909,2.974086 5.06219759,2.974086 0.1880063,0 0.3810011,-0.008 0.5740074,-0.02102 C 9.360377,39.398427 18.01892,32.026444 24.423992,26.155885 l 11.237817,11.237817 c -3.196127,2.987061 -7.485963,4.817884 -12.194961,4.817884 -4.185142,0 -8.02729,-1.453043 -11.071393,-3.875126 l -1.770056,1.127042 c 3.463117,2.9551 7.941283,4.748155 12.841449,4.748155 5.260896,0 10.050758,-2.054647 13.609527,-5.40339 l 3.551115,3.551115 c 0.479736,0.479736 1.252164,0.479736 1.7319,0 0.479736,-0.479736 0.479736,-1.252164 0,-1.731899 L 5.5565259,3.824623 C 5.3166579,3.5847549 5.0036172,3.4648028 4.6905761,3.4648028 Z M 23.466848,4.4613215 c -4.106187,0 -7.925511,1.2518788 -11.096425,3.3940723 l 1.443971,1.444016 c 2.785818,-1.794796 6.099896,-2.837023 9.652454,-2.837023 2.029068,0 3.975142,0.3569751 5.793203,0.981996 L 27.08999,4.809325 C 25.91295,4.5903178 24.704889,4.4613215 23.466848,4.4613215 Z m 4.421169,12.9224055 c -0.997726,0.969608 -2.023509,1.950351 -3.061629,2.927677 l 2.833009,2.833008 c 1.231171,-1.16298 2.268483,-2.161919 3.018692,-2.890558 -0.001,-0.001 -0.394992,-1.227074 -1.061015,-1.852094 -0.666022,-0.625021 -1.729057,-1.018033 -1.729057,-1.018033 z m 12.896425,2.54711 c 0.359012,1.410048 0.557004,2.885091 0.557004,4.407143 0,3.552314 -1.042091,6.866168 -2.836615,9.651866 l 1.443385,1.443385 c 2.141718,-3.170799 3.393306,-6.989755 3.393306,-11.095251 0,-0.726025 -0.051,-1.437045 -0.127008,-2.140069 z" />
</svg>
