<?xml version="1.0" encoding="UTF-8" standalone="no"?>
<!-- Uploaded to: SVG Repo, www.svgrepo.com, Generator: SVG Repo Mixer Tools -->

<svg
   width="700"
   height="683.33008"
   viewBox="0 0 21 20.499902"
   fill="#FFE397"
   version="1.1"
   id="svg2"
   xmlns="http://www.w3.org/2000/svg"
   xmlns:svg="http://www.w3.org/2000/svg">
  <defs
     id="defs2" />
  <path
     id="path1"
     style="fill: #FFE397;fill-opacity:1;stroke:none;stroke-width:0;stroke-dasharray:none"
     d="M 10.00002,0 C 9.44772,0 9,0.4477395 9,1.0000195 V 11.00004 C 9,11.55234 9.44772,12 10.00002,12 h 0.99996 C 11.55228,12 12,11.552339 12,11.00004 V 1.0000195 C 12,0.4477395 11.55228,0 10.99998,0 Z M 3.0147656,3.3566015 C 2.7626756,3.3603615 2.5154842,3.4662073 2.3398242,3.6792773 0.8797542,5.4503173 0,7.7116953 0,10.176446 c 0,5.729399 4.72915,10.323456 10.5,10.323456 5.7709,0 10.5,-4.594057 10.5,-10.323457 0,-2.4647497 -0.879724,-4.7261277 -2.339824,-6.4971677 -0.3513,-0.42614 -0.988697,-0.4233711 -1.379297,-0.032871 l -0.707051,0.7071094 c -0.3906,0.3905 -0.384229,1.0200617 -0.04963,1.4595117 0.9297,1.22137 1.475801,2.7307182 1.475801,4.3634186 0,4.0168 -3.3297,7.323457 -7.5,7.323457 -4.17027,0 -7.5,-3.306657 -7.5,-7.323457 0,-1.6327004 0.5460794,-3.1420486 1.4758594,-4.3634186 0.33452,-0.43945 0.3409111,-1.0690117 -0.049629,-1.4595117 L 3.7190625,3.6464062 C 3.5237925,3.4511562 3.2668556,3.3528415 3.0147656,3.3566015 Z" />
</svg>
