<?xml version="1.0" encoding="UTF-8" standalone="no"?>
<!-- Uploaded to: SVG Repo, www.svgrepo.com, Generator: SVG Repo Mixer Tools -->

<svg
   width="566.66669"
   height="666"
   viewBox="0 0 17.000001 19.98"
   fill="#FFE397"
   version="1.1"
   id="svg5"
   sodipodi:docname="ram_rev.svg"
   inkscape:version="1.4.2 (ebf0e940d0, 2025-05-08)"
   xmlns:inkscape="http://www.inkscape.org/namespaces/inkscape"
   xmlns:sodipodi="http://sodipodi.sourceforge.net/DTD/sodipodi-0.dtd"
   xmlns="http://www.w3.org/2000/svg"
   xmlns:svg="http://www.w3.org/2000/svg">
  <defs
     id="defs5" />
  <sodipodi:namedview
     id="namedview5"
     pagecolor="#ffffff"
     bordercolor="#000000"
     borderopacity="0.25"
     inkscape:showpageshadow="2"
     inkscape:pageopacity="0.0"
     inkscape:pagecheckerboard="0"
     inkscape:deskcolor="#d1d1d1"
     inkscape:zoom="0.26251339"
     inkscape:cx="192.37114"
     inkscape:cy="299.03236"
     inkscape:window-width="1078"
     inkscape:window-height="1006"
     inkscape:window-x="0"
     inkscape:window-y="0"
     inkscape:window-maximized="1"
     inkscape:current-layer="svg5" />
  <g
     id="g1"
     transform="translate(1.6969699)">
    <path
       d="m 10.0127,17.177201 c 0.0045,0.445079 -0.3551182,0.80836 -0.8002765,0.80836 h -4.815473 c -0.4399399,0 -0.7974031,-0.355038 -0.8003405,-0.794994 L 3.585973,15.600499 c 0,-0.880392 0.7123173,-1.600713 1.600713,-1.600713 h 3.2094536 c 0.8803922,0 1.5927094,0.712317 1.600713,1.59271 z"
       fill="#FFE397"
       id="path1"
       style="fill: #FFE397;fill-opacity:1;stroke-width:0.800357" />
    <path
       d="m 12.005348,8.3967943 v 1.7367897 c 0,0.424189 0.168074,0.832371 0.47221,1.136506 l 0.656292,0.656293 c 0.304136,0.304135 0.472211,0.712317 0.472211,1.136506 v 0.936417 c 0,1.8417 -0.727444,3.196304 -2.316472,3.734543 -0.241068,0.08172 -0.477653,-0.108688 -0.478533,-0.363201 l -0.0062,-1.786636 C 10.788806,14.271427 9.7083244,13.198949 8.4037433,13.198949 H 5.1943137 c -1.3285918,0 -2.4010695,1.080482 -2.4010695,2.40107 v 1.780073 c 0,0.254113 -0.2350727,0.445238 -0.4762922,0.365443 C 0.70911586,17.213458 0,15.85053 0,13.999306 V 5.9957248 C 0,4.0700351 0.76177132,2.6612636 2.5173053,2.1832346 c 0.2405551,-0.065509 0.464743,0.127825 0.4611654,0.377104 l -0.025155,1.7546376 c -0.008,0.3761675 0.128057,0.7363279 0.3841711,1.0084492 0.2641177,0.2721212 0.608271,0.4241809 1.0164528,0.4321925 0.4115193,0 0.7779705,-0.1702839 1.0280579,-0.4474473 0.0898,-0.099548 0.2617966,-0.1035582 0.3565588,-0.00876 0.2561141,0.2721212 0.608271,0.4321845 1.0164528,0.440188 0.4116233,0 0.7871506,-0.1809205 1.0433447,-0.4721463 0.084197,-0.095699 0.2565943,-0.103334 0.341272,-0.00806 0.2561141,0.2721132 0.608271,0.4321926 1.0164528,0.4401961 0.7683422,0 1.3846164,-0.6002754 1.4006234,-1.3766212 l 0.03177,-1.7794726 c 0.0043,-0.2435485 0.224821,-0.4284068 0.460205,-0.365835 1.763986,0.4688249 2.55738,1.8869445 2.55738,3.8180607 v 0.8003565 c 0,0.4401961 -0.360161,0.8003565 -0.800357,0.8003565 -0.440196,0 -0.800356,0.3601605 -0.800356,0.8003565 z"
       fill="#FFE397"
       id="path2"
       style="fill: #FFE397;fill-opacity:1;stroke-width:0.800357" />
    <path
       d="m 4.584346,1.9970797 c 0.2246601,-0.00145 0.4064931,0.1822972 0.4026994,0.4069333 l -0.033103,1.9594808 c -0.008,0.3281461 -0.2721212,0.5922638 -0.6002673,0.5922638 h -0.008 C 4.00953,4.947754 3.7454043,4.6756328 3.7534079,4.3394831 V 2.4000432 c 0,-0.220002 0.1775991,-0.3987456 0.3976011,-0.4001703 z"
       fill="#FFE397"
       id="path3"
       style="fill: #FFE397;fill-opacity:1;stroke-width:0.800357" />
    <path
       d="m 6.9879927,1.9944385 c 0.2236996,0 0.4039399,0.1833297 0.4001782,0.4069573 l -0.033135,1.9540944 c -0.008,0.3201426 -0.2721212,0.5842603 -0.6002674,0.5842603 h -0.008 C 6.4106155,4.9317469 6.1464978,4.6596257 6.1545014,4.3314795 V 2.3946168 c 0,-0.2210105 0.1791198,-0.4001783 0.4001783,-0.4001783 z"
       fill="#FFE397"
       id="path4"
       style="fill: #FFE397;fill-opacity:1;stroke-width:0.800357" />
    <path
       d="m 9.3914633,1.9997049 c 0.2227392,0.0014 0.4014588,0.1844101 0.3976171,0.4071173 l -0.032975,1.9004625 c -0.008,0.3281462 -0.2721212,0.5922639 -0.6002674,0.5922639 h -0.008 C 8.811685,4.891545 8.5475674,4.6194238 8.5555709,4.2912776 V 2.3971459 c 0,-0.2219949 0.1807205,-0.4015709 0.4026594,-0.4001702 z"
       fill="#FFE397"
       id="path5"
       style="fill: #FFE397;fill-opacity:1;stroke-width:0.800357" />
  </g>
</svg>
