<?xml version="1.0" encoding="UTF-8" standalone="no"?>
<!-- Uploaded to: SVG Repo, www.svgrepo.com, Generator: SVG Repo Mixer Tools -->

<svg
   height="737.49963"
   width="800.00183"
   version="1.1"
   id="_x32_"
   viewBox="0 0 512.00117 471.99977"
   xml:space="preserve"
   xmlns="http://www.w3.org/2000/svg"
   xmlns:svg="http://www.w3.org/2000/svg"><defs
   id="defs1" />
<style
   type="text/css"
   id="style1">
	.st0{fill: #D7FEFF;}
</style>
<path
   class="st0"
   d="m 446.02513,72.205765 c -40.762,-42.394 -97.487,-69.6419999 -160.383,-72.18199992 -15.791,-0.638 -29.114,11.64799992 -29.752,27.43299992 -0.638,15.791 11.648,29.114 27.426,29.76 47.715,1.943 90.45,22.481 121.479,54.681005 30.987,32.235 49.956,75.765 49.971,124.011 -0.015,49.481 -19.977,94.011 -52.383,126.474 -32.462,32.413 -76.999,52.368 -126.472,52.382 -49.474,-0.015 -94.025,-19.97 -126.474,-52.382 -32.405,-32.463 -52.368003,-76.992 -52.382003,-126.474 0,-3.483 0.106,-6.938 0.302,-10.364 l 34.091003,16.827 c 3.702,1.824 8.002,1.852 11.35,0.086 3.362,-1.788 5.349,-5.137 5.264,-8.896 l -3.362,-149.834005 c -0.114,-4.285 -2.88,-8.357 -7.094,-10.464 -4.242,-2.071 -9.166,-1.809 -12.613,0.738 L 4.0081272,162.44977 c -3.05000001,2.221 -4.49800001,5.831 -3.86000001,9.577 0.61,3.759 3.24900001,7.143 6.96600001,8.974 l 35.7219998,17.629 c -1.937,12.166 -3.018,24.602 -3.018,37.279 -0.014,65.102 26.475,124.31 69.153003,166.944 42.636,42.672 101.829,69.16 166.939,69.147 65.095,0.014 124.302,-26.475 166.937,-69.146 42.678,-42.635 69.167,-101.842 69.154,-166.944 0.013,-63.464 -25.157,-121.345 -65.976,-163.704005 z"
   id="path1"
   style="stroke:none;stroke-width:0;stroke-dasharray:none" />
</svg>
