<?xml version="1.0" encoding="UTF-8" standalone="no"?>
<!-- Uploaded to: SVG Repo, www.svgrepo.com, Generator: SVG Repo Mixer Tools -->

<svg
   width="666.66644"
   height="533.3327"
   viewBox="0 0 19.999993 15.999981"
   fill="#D7FEFF"
   version="1.1"
   id="svg3"
   xmlns="http://www.w3.org/2000/svg"
   xmlns:svg="http://www.w3.org/2000/svg">
  <defs
     id="defs3" />
  <path
     id="path1"
     d="m 11.759241,0.00305793 c -0.913314,-0.059419 -2.0643507,0.7498339 -4.1107041,2.18853517 -0.59277,0.41676 -0.8891689,0.6251214 -1.2196289,0.7461914 -0.06866,0.02515 -0.1382151,0.047438 -0.2085351,0.066738 -0.33838,0.09289 -0.6933803,0.092871 -1.4033204,0.092871 -1.98711,0 -2.9806435,2.1e-6 -3.7331835,0.6353321 C 0.946519,3.8486856 0.7826488,4.019694 0.6709588,4.163624 0.0590288,4.952144 0.0403301,5.8732785 0.00299,7.7155182 0.00103,7.8122182 0,7.9071912 0,7.9999912 c 0,0.0928 0.00103,0.187773 0.00299,0.284473 0.03734,1.8421998 0.056039,2.7633528 0.6679688,3.5519528 0.11169,0.1439 0.2755602,0.314898 0.4129102,0.430898 0.75254,0.6353 1.7460736,0.635274 3.7331835,0.635274 0.70994,0 1.0649404,2.9e-5 1.4033204,0.09293 0.07032,0.0193 0.1398751,0.04148 0.2085351,0.06668 0.33046,0.1211 0.6268589,0.329391 1.2196289,0.746191 2.3386904,1.6442 3.5080121,2.4663 4.4895121,2.1092 0.1881,-0.0685 0.370269,-0.167319 0.532968,-0.289219 0.8484,-0.6358 0.912897,-2.11515 1.041798,-5.07375 0.0478,-1.0954998 0.08033,-2.0331288 0.08033,-2.5546288 0,-0.5215 -0.03253,-1.459099 -0.08033,-2.5546289 -0.1289,-2.95862 -0.193397,-4.43793 -1.041798,-5.07374997 -0.162699,-0.1219 -0.344868,-0.2207488 -0.532968,-0.2892188 -0.122688,-0.044643 -0.248336,-0.070847 -0.378808,-0.0793366 z m 6.168104,1.37865237 c -0.154566,7.878e-4 -0.309801,0.056696 -0.437812,0.1704492 l -0.09182,1.03125 c 6e-4,7.6e-4 0.0017,0.00217 0.0032,0.00434 0.0049,0.00671 0.01448,0.020273 0.02818,0.040723 0.0274,0.04089 0.07119,0.1095489 0.126093,0.2071289 0.1097,0.19506 0.264317,0.5062234 0.421817,0.9427734 0.3143,0.87132 0.643711,2.2524971 0.643711,4.2217971 0,1.9693 -0.329411,3.3506141 -0.643711,4.2219141 -0.1575,0.4366 -0.312117,0.747732 -0.421817,0.942832 -0.0549,0.0976 -0.09869,0.16617 -0.126093,0.20707 -0.0137,0.0205 -0.02328,0.03402 -0.02818,0.04072 -0.0015,0.0021 -0.0026,0.0036 -0.0032,0.0043 -0.2399,0.312 -0.199383,0.772509 0.09182,1.031309 0.2926,0.26 0.727508,0.217781 0.971308,-0.09422 l -0.529804,-0.470801 c 0.529801,0.4708 0.530559,0.469812 0.530859,0.469512 l 0.0012,-0.0015 0.0027,-0.0036 0.0069,-0.0091 c 0.0052,-0.0069 0.01169,-0.01571 0.01939,-0.02631 0.0154,-0.0211 0.03541,-0.04963 0.05941,-0.08543 0.048,-0.0717 0.111987,-0.173073 0.186387,-0.305273 0.1489,-0.2646 0.339065,-0.652124 0.526465,-1.171524 0.3753,-1.0407 0.735645,-2.601002 0.735645,-4.7499021 0,-2.1488402 -0.360345,-3.7090954 -0.735645,-4.7497854 -0.1874,-0.51946 -0.377565,-0.9069634 -0.526466,-1.1715234 -0.0744,-0.13222 -0.138387,-0.2335635 -0.186387,-0.3052735 -0.024,-0.03586 -0.04401,-0.06428 -0.05941,-0.08543 -0.0077,-0.01058 -0.01419,-0.019349 -0.01939,-0.026309 l -0.0069,-0.00908 -0.0027,-0.00357 -0.0012,-0.00152 -0.0011,-0.00135 h -5.8e-5 C 18.323645,1.4708201 18.126074,1.3806974 17.927345,1.3817103 Z m -1.842422,2.941582 c -0.111209,0.00112 -0.223711,0.031 -0.327772,0.092637 -0.330101,0.19557 -0.450821,0.6373875 -0.272521,0.9909375 l 0.0046,0.01002 c 0.0063,0.01411 0.01829,0.042288 0.03439,0.085078 0.0321,0.08551 0.08031,0.2299654 0.130313,0.4381054 0.100001,0.4158299 0.208301,1.0897149 0.208301,2.0602149 0,0.9706 -0.108301,1.644532 -0.208301,2.0603319 -0.05,0.2082 -0.09821,0.352547 -0.130313,0.438047 -0.0161,0.0428 -0.02809,0.07104 -0.03439,0.08514 l -0.0046,0.01002 c -0.1783,0.3536 -0.05758,0.795379 0.272521,0.990879 0.332999,0.1973 0.752892,0.0694 0.937792,-0.285703 L 16.09213,10.941871 c 0.6028,0.3571 0.603316,0.356198 0.603516,0.355898 l 7.03e-4,-0.0013 0.0015,-0.003 0.0036,-0.007 0.0088,-0.01799 c 0.0067,-0.0138 0.01486,-0.03122 0.02426,-0.05232 0.0188,-0.0422 0.04273,-0.09899 0.06973,-0.171094 0.0542,-0.1443 0.120901,-0.349202 0.185801,-0.619102 0.1299,-0.5401999 0.251485,-1.3371049 0.251485,-2.4256049 0,-1.0884 -0.121584,-1.885307 -0.251485,-2.4255469 -0.0649,-0.26986 -0.131601,-0.4746844 -0.185801,-0.6189844 -0.027,-0.07211 -0.05093,-0.1290209 -0.06973,-0.1712109 -0.0094,-0.02109 -0.01756,-0.038466 -0.02426,-0.052266 l -0.0088,-0.017988 -0.0036,-0.00697 -0.0015,-0.00299 -7.03e-4,-0.00141 -7.03e-4,-0.00129 C 16.567822,4.4575559 16.329586,4.3208225 16.084923,4.3232923 Z"
     style="fill: #D7FEFF;fill-opacity:1;stroke:none;stroke-width:0.99999;stroke-dasharray:none" />
</svg>
