<?xml version="1.0" encoding="UTF-8" standalone="no"?>
<!-- Uploaded to: SVG Repo, www.svgrepo.com, Generator: SVG Repo Mixer Tools -->

<svg
   width="2655.9343"
   height="2337.6907"
   viewBox="0 0 79.67803 70.13072"
   fill="#D7FEFF"
   version="1.1"
   id="svg2"
   xmlns="http://www.w3.org/2000/svg"
   xmlns:svg="http://www.w3.org/2000/svg">
  <defs
     id="defs2" />
  <path
     id="path1"
     style="baseline-shift:baseline;display:inline;overflow:visible;opacity:1;fill: #D7FEFF;stroke:none;stroke-width:0.99999;stroke-linecap:round;stroke-dasharray:none;enable-background:accumulate;stop-color:#000000;stop-opacity:1"
     d="M 8.7070126,7.7396169e-8 A 4.3832049,4.3832049 0 0 0 5.6074028,1.2832033 a 4.3832049,4.3832049 0 0 0 0,6.1992183 l 5.8299032,5.8299034 c -4.0105734,2.853517 -7.5734648,6.313564 -10.55443435,10.269433 -1.4568465,1.933345 -1.0706254,4.681597 0.86267565,6.138575 1.9333449,1.456978 4.6816111,1.070376 6.1384573,-0.862618 2.7382124,-3.633811 6.0765334,-6.75626 9.8595124,-9.239179 h 5.8e-5 l 5.987578,5.987636 c -4.853535,2.422223 -9.080336,5.937999 -12.346523,10.272539 -1.4568474,1.933432 -1.070626,4.681742 0.862676,6.138282 1.933301,1.456978 4.681668,1.070816 6.138515,-0.862617 2.497726,-3.314581 5.744383,-5.99102 9.474668,-7.810489 0.827023,-0.403368 1.672633,-0.762045 2.533125,-1.075254 h 5.9e-5 l 7.265683,7.265743 c -2.064419,0.204703 -4.081521,0.774705 -5.955937,1.688789 -2.486856,1.212833 -4.651328,2.997242 -6.316465,5.206816 -1.456846,1.933433 -1.070567,4.681713 0.862734,6.138691 1.933345,1.456978 4.681421,1.070378 6.138399,-0.862617 0.83281,-1.105006 1.915008,-1.996977 3.158086,-2.603613 1.243516,-0.606197 2.612811,-0.909989 3.996152,-0.885879 1.38334,0.02411 2.741299,0.375214 3.962461,1.024805 1.221599,0.649591 2.272265,1.578835 3.065625,2.711894 1.167216,1.667188 3.284241,2.273295 5.107324,1.599492 h 5.9e-5 l 15.294844,15.294903 a 4.3832049,4.3832049 0 0 0 6.197285,0 4.3832049,4.3832049 0 0 0 0,-6.199219 L 11.806622,1.2832033 A 4.3832049,4.3832049 0 0 0 8.7070126,7.7396169e-8 Z M 40.230977,4.390547 C 35.885028,4.314674 31.563608,4.826977 27.382599,5.90209 l 7.505214,7.505215 c 1.717779,-0.197333 3.451358,-0.282049 5.190176,-0.251719 6.224154,0.108659 12.334768,1.688929 17.831309,4.611563 5.49698,2.922679 10.223844,7.104805 13.794843,12.204316 1.388161,1.982963 4.12151,2.465143 6.104473,1.076543 1.982963,-1.3886 2.464704,-4.121569 1.076543,-6.104707 C 74.520798,18.710468 68.743299,13.599054 62.025157,10.026915 55.307016,6.4547326 47.838471,4.5233144 40.230977,4.390547 Z m 3.426329,17.786192 21.538183,21.538301 c 0.642578,-0.09906 1.272924,-0.343685 1.841426,-0.74168 1.982963,-1.3886 2.465084,-4.12151 1.076484,-6.104473 -3.17388,-4.533112 -7.375601,-8.250501 -12.261562,-10.84834 -3.804185,-2.022631 -7.938875,-3.321987 -12.194531,-3.843808 z m -4.267911,34.804922 c -2.420846,0 -4.383222,1.962377 -4.383222,4.383222 0,2.420845 1.962376,4.383223 4.383222,4.383223 2.420845,0 4.383164,-1.962378 4.383164,-4.383223 0,-2.420845 -1.962319,-4.383222 -4.383164,-4.383222 z" />
</svg>
