<?xml version="1.0" encoding="UTF-8" standalone="no"?>
<!-- Uploaded to: SVG Repo, www.svgrepo.com, Generator: SVG Repo Mixer Tools -->

<svg
   fill="#3BBDFF"
   width="715.52502"
   height="714.20001"
   viewBox="0 0 28.621001 28.568"
   version="1.1"
   id="svg1"
   xmlns="http://www.w3.org/2000/svg"
   xmlns:svg="http://www.w3.org/2000/svg">
  <defs
     id="defs1" />
  <title
     id="title1">archlinux</title>
  <path
     d="m 14.235,0 c -1.267,3.108 -2.032,5.142 -3.443,8.156 1.088,1.18 2.284,2.23 3.582,3.145 l 0.07,0.047 C 12.888,10.747 11.545,9.963 10.351,9.001 L 10.38,9.024 C 8.573,12.793 5.744,18.161 0,28.48 3.237,26.374 6.997,24.715 11.016,23.708 l 0.257,-0.054 c -0.136,-0.561 -0.214,-1.205 -0.214,-1.868 v -0.069 0.003 l 0.004,-0.144 c 0.072,-2.893 1.576,-5.117 3.358,-4.965 1.782,0.15 3.167,2.619 3.097,5.51 -0.012,0.557 -0.078,1.091 -0.193,1.608 l 0.01,-0.054 c 4.227,1.076 7.939,2.726 11.286,4.893 l -0.147,-0.089 c -0.877,-1.616 -1.662,-3.073 -2.411,-4.461 -1.436,-1.262 -3.048,-2.387 -4.777,-3.322 l -0.138,-0.068 c 1.484,0.355 2.791,0.885 3.991,1.58 L 25.068,22.17 C 21.508,16.092 17.878,8.805 14.71,1.276 L 14.234,0.001 Z"
     id="path1"
     style="fill: #3BBDFF;fill-opacity:1;stroke:none;stroke-width:0;stroke-dasharray:none" />
</svg>
