<?xml version="1.0" encoding="UTF-8" standalone="no"?>
<!-- Uploaded to: SVG Repo, www.svgrepo.com, Generator: SVG Repo Mixer Tools -->

<svg
   width="108.92452"
   height="114.02773"
   version="1.1"
   id="svg1"
   xmlns="http://www.w3.org/2000/svg"
   xmlns:svg="http://www.w3.org/2000/svg"
   xmlns:rdf="http://www.w3.org/1999/02/22-rdf-syntax-ns#"
   xmlns:cc="http://creativecommons.org/ns#"
   xmlns:dc="http://purl.org/dc/elements/1.1/">
  <defs
     id="defs1" />
  <title
     id="title1">Clarity Icon</title>
  <desc
     id="desc1">This is shape (source) for Clarity vector icon theme for gtk</desc>
  <metadata
     id="metadata1">
    <rdf:RDF>
      <cc:Work
         rdf:about="">
        <dc:title>Clarity Icon</dc:title>
        <dc:description>This is shape (source) for Clarity vector icon theme for gtk</dc:description>
        <dc:creator>
          <cc:Agent>
            <dc:title>Jakub Jankiewicz</dc:title>
          </cc:Agent>
        </dc:creator>
        <dc:rights>
          <cc:Agent>
            <dc:title>Jakub Jankiewicz</dc:title>
          </cc:Agent>
        </dc:rights>
        <dc:date>2010</dc:date>
        <dc:format>image/svg+xml</dc:format>
        <dc:type
           rdf:resource="http://purl.org/dc/dcmitype/StillImage" />
        <cc:license
           rdf:resource="http://creativecommons.org/licenses/by-sa/3.0/" />
      </cc:Work>
    </rdf:RDF>
  </metadata>
  <path
     d="M 45.369727,0.0023729 C 43.098017,-0.0229001 40.840951,0.1534017 38.69432,0.5459728 18.049346,4.3214755 3.5250683,22.199249 2.2948883,33.966476 c -0.603575,5.773536 2.501488,10.095232 4.218334,12.002691 4.6399497,5.1551 13.8847627,9.088063 19.8305207,12.350577 -8.595713,7.329018 -12.534104,10.904523 -16.4167107,14.981605 -5.809783,6.100788 -9.90280868,12.802819 -9.91526068,17.612633 -0.0038,1.549276 -0.254083,6.493739 1.76126168,10.393628 0.757878,1.46659 2.920173,6.35912 9.4151487,10.02397 4.151245,2.34237 10.061522,3.21813 15.851371,2.39184 C 44.958345,111.16615 68.970954,95.956671 86.096225,81.803259 97.010498,72.783 104.97047,64.037024 107.27487,59.733107 c 1.85931,-3.472614 2.07873,-9.702815 1.00022,-13.61174 C 105.211,35.015946 80.301895,12.288576 59.938204,3.1335075 55.475626,1.1272314 50.367504,0.0579638 45.369727,0.0023729 Z m 3.479038,20.0044691 c 2.67668,-0.07916 5.808394,0.741961 9.175965,2.370094 8.02335,3.879065 16.268908,14.074868 -0.06525,19.939237 -4.441638,1.59466 -18.543969,-3.916534 -18.112744,-11.437338 0.412668,-7.290707 3.891987,-10.720867 9.002009,-10.871993 z"
     id="path1"
     style="fill: #A28D51;fill-opacity:1;stroke:none" />
</svg>
