<?xml version="1.0" encoding="UTF-8" standalone="no"?>
<svg
   viewBox="0 0 3000 3000"
   version="1.1"
   id="svg3"
   width="3000"
   height="3000"
   xmlns="http://www.w3.org/2000/svg"
   xmlns:svg="http://www.w3.org/2000/svg">
  <defs
     id="defs3" />
  <path
     id="path1"
     style="fill: #6A8CBC;fill-opacity:1;stroke:none;stroke-width:2.86154"
     d="m 1498.895,101.17755 c -4.4955,0.20031 -8.5388,4.27229 -8.5588,10.24432 -0.086,22.76071 -0.057,45.55861 0.086,68.39371 0.029,6.65594 -0.9157,12.90555 -2.8616,18.74309 -36.456,108.59551 -123.7902,191.95222 -211.8399,260.45752 -113.2598,88.07825 -235.8196,164.62162 -354.57359,245.03094 -116.4075,78.83548 -228.23655,165.51443 -306.12771,277.17178 -0.55228,0.80122 -1.30486,1.32203 -2.25776,1.57098 -81.09609,20.60311 -159.47657,44.38251 -242.66158,63.72651 -114.60474,26.6123 -258.85505,26.7268 -345.78868,-66.07297 a 3.1763111,3.2335419 72.8 0 0 -2.000218,-1.03016 c -6.123699,-0.70394 -10.994042,1.22189 -14.5995851,5.78032 a 2.0316945,2.0316945 0 0 0 0.1430771,2.66124 c 11.417551,11.50338 24.065566,22.78077 32.907729,35.62907 59.863447,86.9336 60.266927,205.37 38.805365,304.0646 -18.743097,86.1896 -47.647528,188.5183 -62.18416,248.9541 -9.1941336,38.2301 -14.6882933,70.9004 -16.47961823,98.0078 -4.06338917,61.4086 5.77745223,118.6137 25.37901223,176.3596 31.104958,91.598 102.757958,163.8204 193.812208,195.698 44.60285,15.604 90.2845,26.9386 137.04208,33.9979 13.1631,2.0032 26.86703,5.0049 39.20027,6.8077 149.51555,21.8049 288.75816,58.0606 420.58937,125.3641 a 3.8916965,3.8630811 49.2 0 1 -0.51221,7.1281 c -30.52407,10.3759 -61.26847,20.3141 -92.23035,29.8144 -4.092,1.2591 -9.41161,2.0918 -13.93285,0.1431 -55.99178,-23.9969 -114.24419,-39.8127 -174.75434,-47.4443 -10.10124,-1.2592 -21.80494,-3.2078 -31.47696,-3.4082 -15.50955,-0.3433 -31.5628,-3.0589 -46.07081,-3.0589 -39.8899,-0.029 -79.78837,-0.229 -119.69829,-0.6039 -22.11971,-0.2003 -44.69728,-1.8886 -64.06992,-5.6372 -22.69202,-4.4068 -31.47981,-12.8455 -47.87645,-30.7014 -0.64956,-0.704 -1.43077,-0.9272 -2.34646,-0.6582 -7.55447,2.1748 -10.12986,6.324 -7.69755,14.2791 64.38468,209.6937 311.82218,145.5094 461.19466,105.6481 10.10124,-2.6899 14.59386,0.5436 23.2071,4.9504 36.97112,18.9434 71.38402,41.644 103.24442,68.1019 a 3.3193882,3.3193882 0 0 0 3.69425,0.3749 c 46.10802,-24.8754 94.61115,-43.63 145.50648,-56.2579 a 3.6913886,3.6627732 55.7 0 1 3.0075,0.5694 c 55.70567,38.8025 108.70427,80.9759 159.01017,126.5116 a 1.8027711,1.8027711 0 0 0 2.667,-0.289 c 6.447,-8.928 13.3806,-17.7301 20.8034,-26.4092 19.8305,-23.2643 63.3803,-32.9078 92.5966,-32.6788 0.9529,0 1.8629,-0.229 2.7213,-0.6581 3.4711,-1.7943 6.8964,-1.6597 10.273,0.4006 a 4.2923123,4.2350815 59 0 0 2.5439,0.6552 c 12.4763,-0.5922 24.7809,0.5152 36.9139,3.3195 69.1921,16.0818 129.5419,54.3692 183.5678,100.8121 2.2721,1.9458 2.461,4.0748 0.5723,6.3841 -0.4006,0.4778 -1.1932,1.3048 -2.375,2.4866 -36.3702,36.0269 -65.9585,91.8269 -60.121,143.0485 7.9837,70.3653 56.3438,126.0509 80.0401,192.0381 10.6136,29.5311 11.761,52.97 10.6736,86.45 a 0.77261622,0.7440008 59.4 0 0 1.4308,0.372 c 1.3163,-2.5925 1.7856,-5.334 1.4022,-8.2155 a 3.0618494,3.033234 16.2 0 1 4.9733,-2.7156 l 3.0934,2.5725 c 0.8755,0.724 1.7083,0.6611 2.4923,-0.2002 3.1649,-3.5685 4.444,-7.7205 3.8345,-12.4506 -0.1144,-0.8585 0.1431,-1.5854 0.7697,-2.1748 0.5523,-0.5151 0.8671,-1.1733 0.9443,-1.9745 2.0032,-18.8461 3.2365,-37.7608 3.6943,-56.7443 0.086,-4.5384 1.1103,-8.7735 3.0561,-12.7024 31.0191,-62.9253 72.5687,-117.6122 76.8039,-183.0271 4.4067,-67.7327 -39.4264,-122.3567 -88.1585,-163.4198 a 2.2606178,2.2892332 44.8 0 1 0,-3.4653 l 93.5696,-80.2634 a 8.2698551,8.2984705 32.7 0 1 7.6403,-1.6883 c 65.701,18.6773 131.5565,37.4833 197.5637,56.4267 14.1932,4.0921 35.8522,12.3619 55.6828,15.1662 0.9729,0.1431 1.797,-0.1717 2.4637,-0.8871 6.6388,-7.5258 13.2204,-15.1346 20.3456,-21.5445 73.0837,-65.7983 151.9192,-123.8103 236.5064,-174.0419 3.1763,-1.8886 9.1855,-1.259 12.3904,0.4866 27.5281,15.0516 54.6555,31.0305 81.3823,47.9308 a 3.576927,3.6055424 45.6 0 0 3.8059,0.029 c 37.5234,-22.5862 76.7837,-41.5697 117.781,-56.9447 0.8957,-0.3434 1.7827,-0.3206 2.6584,0.057 43.2665,18.3998 86.8477,36.024 130.057,54.481 22.0711,9.4259 44.8518,16.6455 68.3365,21.6647 7.44,1.6025 24.1657,1.4479 50.1886,-0.4579 0.9729,-0.086 1.9,-0.3348 2.7757,-0.7727 3.0161,-1.5451 6.1065,-1.4679 9.2743,0.229 0.8011,0.4207 1.6195,0.4979 2.458,0.2289 77.7481,-25.1815 142.6736,-73.885 181.0469,-146.6253 a 2.546772,2.4895412 33.3 0 0 -0.681,-3.1477 l -7.0137,-5.437 c -1.1446,-0.8956 -2.0804,-0.7182 -2.8072,0.5409 -11.3317,19.6702 -28.2291,29.1047 -50.7008,28.3035 -28.0431,-0.973 -59.6088,-7.6947 -87.9094,-10.3274 -30.9046,-2.8901 -64.6994,-5.4998 -92.5422,-3.4109 -59.0423,4.4468 -116.522,16.4024 -172.4365,35.8608 -2.2893,0.8013 -6.5244,0.5981 -8.3271,-0.1716 -26.8412,-11.5235 -53.6911,-23.0355 -80.5524,-34.5389 -0.4379,-0.2003 -0.744,-0.5064 -0.9157,-0.9443 -0.086,-0.2289 -0.1717,-0.4692 -0.3147,-0.7153 a 2.0316945,2.0316945 0 0 1 1.0014,-3.0075 c 110.3984,-42.6943 225.0345,-66.0702 341.0987,-87.1311 123.7617,-22.4631 233.4731,-53.2246 304.7541,-165.5974 18.7145,-29.5312 34.2984,-65.2145 46.7576,-107.0502 14.9945,-50.2201 26.1831,-96.4055 24.0656,-146.8544 -1.3163,-31.7259 -6.221,-63.0226 -14.7112,-93.8901 -22.1197,-80.4379 -46.1567,-160.7584 -63.8124,-242.3124 -21.719,-100.3256 -20.8606,-217.3627 39.8041,-305.3265 7.8692,-11.4176 18.1736,-20.9751 28.5038,-30.41821 1.963,-1.79418 2.9359,-3.49966 2.9159,-5.1193 -0.029,-6.52431 -8.1525,-6.69886 -12.7596,-7.58594 -0.9901,-0.20031 -1.8429,0.0858 -2.5468,0.82698 -93.4293,99.63887 -247.3259,92.11597 -368.1115,61.61187 -65.8527,-16.6342 -124.065,-32.2181 -174.6371,-46.75474 -13.8698,-3.98899 -27.8542,-7.45432 -41.9501,-10.39026 -3.3023,-0.68677 -5.4398,-1.71979 -6.4128,-3.09332 C 2304.4133,865.46096 2188.4636,777.32835 2069.9099,697.26241 1967.5525,628.15619 1863.0205,561.68258 1763.4389,488.5988 1660.9956,413.42611 1546.4796,314.72867 1510.5386,188.96393 c -6.6674,-23.29295 -2.9759,-56.45536 -3.0332,-81.00738 0,-0.9157 -0.2575,-1.75699 -0.8013,-2.52102 -2.252,-3.09905 -5.1163,-4.38102 -7.8119,-4.2637 z m 1.5424,510.68502 a 2.3750795,2.3750795 0 0 1 2.0345,1.39071 c 16.7487,35.69487 39.6238,67.33208 68.6198,94.91734 56.8302,54.02589 124.9063,99.0637 190.6073,139.12528 74.9438,45.69882 204.7118,118.15591 306.2393,185.2018 128.5977,84.9592 284.5259,215.56 263.6081,390.0854 -11.1028,92.857 -62.9826,180.3887 -122.7315,250.4965 -0.6868,0.8012 -0.6983,1.6111 -0.029,2.4323 l 4.2293,5.2366 c 0.7641,0.9529 1.5796,0.9873 2.438,0.086 60.5675,-63.7722 114.0955,-132.9958 160.5869,-207.662 0.5323,-0.8584 1.2991,-1.2047 2.2921,-1.033 42.5597,7.5716 83.7459,3.0819 123.5585,-13.475 a 2.5753874,2.5753874 0 0 1 3.348,3.348 c -15.624,38.3246 -20.5544,77.7309 -14.7942,118.2102 11.6465,81.5826 54.9416,153.579 49.4189,239.4538 -5.809,89.8524 -51.2817,170.5451 -143.4806,190.9192 -45.2409,10.0154 -97.6358,3.8632 -142.3616,-9.5575 a 2.203387,2.203387 0 0 0 -2.5153,0.9729 l -7.3256,11.9641 c -0.7641,1.2591 -0.4407,2.0689 0.9729,2.4323 95.6327,24.7523 195.4748,11.4749 279.3465,-41.0058 74.2571,-46.4715 118.3191,-131.1474 112.4815,-217.1939 -1.6597,-24.4175 -5.1765,-49.7021 -10.5562,-75.8566 -8.7764,-42.637 -18.228,-85.1423 -28.3579,-127.5132 -17.5985,-73.4271 -13.2489,-166.7134 45.0407,-222.4276 a 6.5529301,6.5815455 42 0 0 -0.5151,-9.9553 l -4.2923,-3.2908 c -0.8584,-0.6696 -1.6683,-0.6238 -2.4294,0.1431 -54.3693,53.3963 -134.1491,62.8423 -206.5461,48.4487 -1.2019,-0.2574 -1.5853,-0.9443 -1.1475,-2.0889 24.0369,-61.3801 37.0284,-130.7753 29.617,-196.1329 -0.2862,-2.4037 0.7039,-3.182 2.9731,-2.3436 99.9537,36.7422 206.031,67.1861 311.1927,23.9483 4.6929,-1.9258 6.1465,-0.5123 4.3552,4.2379 -37.944,99.8964 -20.7204,188.8875 12.9313,286.9239 24.3231,70.909 50.5949,140.6162 60.038,215.4168 8.785,69.4782 -1.3477,139.2426 -29.0475,203.3412 -26.9843,62.4102 -70.1106,106.0516 -135.0962,130.4033 -60.1782,22.5489 -121.2406,34.4501 -182.7924,48.7006 -84.5872,19.6101 -166.7535,46.5573 -246.4932,80.8385 -1.4308,0.6096 -3.5597,0.3062 -6.3841,-0.9156 -31.3224,-13.601 -62.5304,-26.8985 -93.6239,-39.89 a 2.2892332,2.2892332 0 0 1 -0.8327,-3.6313 c 21.347,-24.2658 40.1846,-50.3946 56.5154,-78.3804 11.9612,-20.5173 21.9738,-58.6016 -3.5226,-72.6231 a 2.5181566,2.546772 22.9 0 0 -3.6313,1.488 c -15.644,50.6121 -39.5665,96.9175 -71.7674,138.925 a 5.3796981,5.3796981 0 0 1 -6.3498,1.6883 c -32.8132,-13.7354 -66.2046,-27.3363 -100.1825,-40.8056 -35.1684,-13.9071 -71.3697,-17.1978 -107.3966,-4.2923 a 2.9187723,2.9187723 0 0 1 -3.6341,-3.9747 c 13.9843,-29.5683 23.7966,-60.5073 29.4424,-92.8027 0.4006,-2.272 -0.538,-3.2621 -2.8272,-2.9759 -25.5536,3.2908 -53.3992,19.4584 -74.7177,32.7074 a 2.4609257,2.4609257 0 0 1 -3.5483,-3.0905 c 9.6434,-21.6046 28.8758,-62.2643 13.6524,-84.7846 -17.5127,-25.9255 -48.8208,-0.8012 -63.8152,12.9056 -1.1046,1.01 -0.9071,1.4278 0.598,1.2561 2.9474,-0.372 6.0121,-1.6883 8.702,-1.8886 46.7862,-3.6341 26.5579,67.418 19.0321,89.4804 -0.2862,0.8385 -0.7812,1.5281 -1.488,2.0603 l -2.6928,2.0032 c -0.8412,0.6295 -1.3706,1.4537 -1.5996,2.4637 l -6.2409,27.7541 a 1.8027711,1.8027711 0 0 1 -3.3481,0.4865 c -4.0633,-7.3542 -10.4733,-12.0729 -19.3154,-12.9885 -75.144,-7.6976 -153.8651,37.5978 -207.0611,88.6476 -0.6668,0.6296 -0.7269,1.3163 -0.1717,2.0603 3.451,4.6358 7.8206,6.4957 13.1059,5.5801 39.2202,-6.7733 78.0742,-8.9653 116.5506,-6.5788 45.7846,2.833 83.8173,24.5235 101.2728,67.7328 0.4177,0.9901 1.1016,1.2304 2.0574,0.7153 3.222,-1.7369 4.3467,-4.5298 3.3738,-8.3843 -15.6527,-61.9237 -70.0764,-91.658 -129.5964,-93.5467 -10.1871,-0.3262 -19.9907,-0.3977 -29.4138,-0.2288 a 2.2892332,2.2892332 0 0 1 -1.1446,-4.3238 c 45.0693,-24.6665 97.8046,-39.9443 145.7926,-14.4479 0.973,0.515 1.8315,0.3806 2.5755,-0.4035 25.8482,-26.7641 53.7311,-51.1987 83.6457,-73.3098 a 1.6310787,1.6596941 71.3 0 1 2.6326,1.2847 c 0.4864,20.689 -4.0062,70.8518 -18.8576,86.5903 -0.6295,0.6668 -0.5351,1.2133 0.2862,1.6311 l 8.9881,4.4669 c 0.7812,0.4006 1.4965,0.3061 2.1462,-0.2862 22.9495,-21.3471 56.9161,-12.4506 83.4711,-1.262 38.3046,16.1392 76.6894,32.5072 115.1485,49.1041 a 2.9187723,2.9187723 0 0 1 0.9443,4.7244 c -15.2034,15.4895 -31.4111,29.823 -48.6177,43.0061 a 7.4972388,7.4972388 0 0 1 -7.4114,0.9443 c -39.7181,-16.4825 -117.097,-43.0947 -149.175,-2.4609 a 0.68676997,0.68676997 0 0 0 0.89,1.0302 c 36.0268,-19.7447 94.3707,-0.7984 129.5391,13.4807 a 2.6612337,2.6612337 0 0 1 0.4035,4.7501 c -96.5484,58.2897 -205.3214,75.2586 -316.7212,61.9524 -1.1246,-0.1431 -1.4736,-0.7268 -1.0558,-1.777 9.7292,-23.4646 11.7923,-53.7683 -5.5772,-74.6576 a 5.1221593,5.1221593 0 0 0 -8.9595,2.232 c -4.7701,23.1584 -13.372,44.7058 -25.8083,64.6422 a 4.1778506,4.1778506 0 0 1 -4.4096,1.8886 c -52.4434,-10.8166 -103.1672,-27.0587 -152.1768,-48.732 a 2.8329261,2.8329261 0 0 1 0.6324,-5.3483 c 37.2287,-6.9248 89.4232,-23.8366 115.8639,-53.1387 a 2.3464641,2.3464641 0 0 0 -0.8042,-3.7229 l -175.2092,-74.0539 c -1.0503,-0.4378 -1.5768,-1.2304 -1.5768,-2.375 v -27.6425 a 1.4593862,1.4880016 81.3 0 0 -1.9172,-1.4022 l -40.7769,12.2731 c -1.1246,0.3435 -2.2149,0.2576 -3.2622,-0.2861 -14.8228,-7.6861 -30.1893,-13.4463 -46.0995,-17.2808 -79.7798,-19.2868 -168.1441,33.7662 -224.0586,86.1323 -0.7269,0.6869 -0.7269,1.3851 0,2.089 4.1778,4.0634 8.928,5.683 14.2505,4.8618 73.4271,-11.2459 185.4021,-24.9212 218.3384,63.1284 0.3434,0.9157 0.8299,1.0015 1.4594,0.2575 2.8415,-3.3565 3.9403,-6.5758 3.2908,-9.6462 -16.3681,-77.0613 -109.3968,-94.9145 -174.2965,-85.7861 a 1.9172328,1.9172328 0 0 1 -1.2906,-3.5198 c 24.4175,-15.4523 50.7151,-26.6152 78.8928,-33.4829 25.2387,-6.1637 50.838,-3.6799 76.8037,7.4429 17.9876,7.7061 35.6748,15.2206 53.0558,22.5461 a 4.3495431,4.3781586 11.2 0 1 2.687,4.0348 v 27.1302 c 0,0.8585 0.4092,1.1733 1.2304,0.9443 l 42.2622,-11.8496 a 3.6627732,3.8344657 49.6 0 1 2.438,0.1431 l 113.8579,48.3 a 4.0061581,4.0061581 0 0 1 0.9157,6.8391 c -44.9835,35.6262 -119.1546,33.0793 -172.5796,31.5055 a 0.40061581,0.40061581 0 0 0 -0.1716,0.7726 c 81.345,37.924 166.2097,64.6738 254.5942,80.2405 a 2.2892332,2.2892332 0 0 1 1.4307,3.6055 c -13.8871,18.5228 -28.9387,36.5591 -45.1523,54.1118 -1.7941,1.9258 -4.4582,2.375 -7.9866,1.3449 -84.5298,-24.7409 -169.1256,-49.2585 -253.79,-73.5445 -55.5426,-15.9388 -121.4438,-17.3695 -186.0002,-13.6209 -51.7167,2.996 -108.6585,11.0198 -170.83122,24.0685 -0.99298,0.2003 -1.92871,0.057 -2.80429,-0.4607 l -89.45182,-52.5637 a 1.5166171,1.4880016 52.8 0 1 0.36914,-2.75 c 38.09569,-10.2615 77.0928,-16.9317 116.98269,-20.0021 13.392,-1.0502 25.6652,-0.5724 36.8252,1.4307 a 4.9218515,4.8932361 78.6 0 0 4.9791,-7.4943 c -11.5607,-17.8561 -32.5328,-21.6076 -53.4794,-20.5774 -45.15516,2.232 -90.16718,17.484 -132.86137,31.4769 -4.72154,1.5453 -8.55601,0 -12.64802,-2.0574 C 737.84477,2138.478 612.22024,2099.4723 480.98994,2072.0874 414.57356,2058.2376 342.00486,2044.6481 282.14141,2013.5145 165.9056,1952.9643 133.7991,1794.6896 154.7742,1676.5079 c 18.82895,-106.2204 69.56694,-201.6786 87.19404,-307.4984 9.99536,-59.9779 3.97468,-118.5965 -18.05919,-175.8445 a 2.0889253,2.0889253 0 0 1 2.71559,-2.6899 c 46.92928,18.5428 96.21076,25.5564 146.94589,20.3484 57.57422,-5.8662 112.82772,-24.0656 167.08255,-43.6099 a 1.9172328,1.9172328 0 0 1 2.54678,2.0002 c -7.35417,65.9299 5.58,134.4095 29.35941,196.133 a 2.1175407,2.1175407 0 0 1 -1.65969,2.8614 c -71.68162,11.0456 -151.28971,7.237 -204.65746,-48.9924 -0.7812,-0.8184 -1.65683,-0.9299 -2.62975,-0.3405 l -4.83601,2.9731 a 6.4956993,6.4956993 0 0 0 -1.09024,10.2186 c 61.12252,58.6617 61.2656,151.4872 43.69573,227.3752 -11.37176,48.9696 -20.80054,92.1531 -28.29778,129.5448 -6.00924,29.846 -10.93681,65.1259 -9.33435,97.1752 2.63262,51.7367 24.07129,101.9281 57.00763,141.4174 45.75605,54.8557 122.01327,87.7949 191.8635,97.4097 48.49454,6.676 96.40819,3.7572 143.73809,-8.7591 1.20185,-0.3235 1.4737,-1.0217 0.82699,-2.089 l -7.80915,-12.5021 a 2.3464641,2.3464641 0 0 0 -2.66695,-1.0015 c -101.92812,31.4769 -213.52537,17.7702 -262.60081,-87.4487 -19.51572,-41.8358 -27.12741,-92.8885 -21.46156,-139.875 10.61632,-88.3931 60.17822,-164.6217 48.90374,-251.2977 -2.67268,-20.3743 -7.96081,-40.2562 -15.87869,-59.6374 a 2.6326183,2.6040028 89.9 0 1 3.40237,-3.4339 c 39.87272,16.4453 81.05889,20.832 123.56136,13.1631 0.99296,-0.2004 1.74841,0.1431 2.26349,1.0015 46.35697,74.629 99.79053,143.781 160.30355,207.4618 a 1.8313866,1.860002 44.7 0 0 2.68699,-0.029 l 4.46687,-4.8646 a 1.7455403,1.7455403 0 0 0 0.0286,-2.3179 C 731.86452,1602.0504 679.55555,1514.2326 669.08231,1419.7444 655.80476,1299.76 728.34483,1196.7131 814.79201,1122.685 969.0577,990.59618 1154.7689,905.8087 1322.5983,793.40735 1392.191,746.79284 1465.993,688.53471 1498.1282,613.30478 a 2.3750795,2.3750795 0 0 1 2.3149,-1.44793 z m -0.6381,224.9 c -1.9058,-0.0573 -3.9317,0.60092 -6.0865,1.97732 a 4.063389,4.063389 0 0 0 -1.7427,2.4037 c -3.6914,14.07878 -1.5195,30.61849 -1.6339,51.56497 -0.029,5.24521 -1.0846,10.07264 -3.1449,14.47941 -36.9138,78.69239 -129.8309,136.86753 -202.5713,180.82083 -45.862,27.7169 -91.7897,55.285 -137.7861,82.6986 -124.5915,74.257 -307.78461,185.5165 -299.57199,352.0869 5.63724,114.7478 89.94113,218.6189 166.85939,296.739 0.9328,0.9528 1.7255,0.8499 2.375,-0.312 l 2.999,-5.4655 c 0.1716,-0.3062 0.4435,-0.4607 0.8069,-0.4607 0.2576,0 0.5037,0 0.7697,0.029 1.1275,0.057 1.305,-0.332 0.5438,-1.1732 -47.47305,-51.5364 -93.65831,-127.1097 -84.24386,-200.5083 9.30002,-72.8548 65.15726,-129.3702 121.64416,-171.0343 117.2946,-86.533 254.7345,-139.6718 371.2851,-226.7199 25.9055,-19.344 47.802,-43.4725 65.6752,-72.3942 0.515,-0.8011 0.7898,-1.6768 0.827,-2.6326 0.086,-2.1347 1.1446,-3.3279 3.1476,-3.5769 a 2.9473878,2.9473878 0 0 1 2.9503,1.488 c 14.2705,26.4578 33.4943,49.2471 57.6829,68.3623 104.9328,82.9561 229.9564,135.5511 342.1002,207.9768 103.645,66.9886 206.6892,167.197 142.19,302.2331 -16.637,34.8736 -37.9612,66.5881 -63.984,95.1463 -0.7241,0.8013 -0.8099,1.6626 -0.2576,2.5782 l 3.1191,5.291 a 2.3750795,2.3750795 0 0 0 3.7515,0.4579 c 68.3622,-68.8487 137.6115,-155.0355 160.2463,-251.6411 24.4089,-104.2174 -24.7524,-191.5831 -99.4672,-259.5447 -136.5813,-124.2767 -313.3102,-189.4055 -455.7291,-305.4696 -33.4229,-27.24187 -66.6167,-63.58345 -82.1835,-103.01549 -5.8661,-14.79417 -2.7471,-39.82693 -2.8901,-56.02326 a 4.0061581,3.9775427 24.9 0 0 -0.9443,-2.57825 c -2.0403,-2.44662 -4.2866,-3.70855 -6.7361,-3.78295 z m 0.5207,469.40443 c -0.2574,0 -0.515,0.143 -0.8011,0.3806 l -5.7231,5.1193 c -0.704,0.6095 -1.0559,1.385 -1.0559,2.3178 -0.1431,9.7006 1.2905,19.8877 -3.8603,28.644 -24.323,41.0631 -65.7896,70.4254 -105.5365,95.235 -38.8226,24.2659 -77.7366,48.3858 -116.748,72.3656 -40.9201,25.1529 -78.9528,52.2545 -112.9193,88.6533 -99.1524,106.2491 -25.4105,215.1021 51.7653,299.0598 0.6667,0.7239 1.4508,0.9042 2.3465,0.5408 l 2.8329,-1.1446 a 3.0904648,3.0904648 0 0 0 1.1475,-4.9476 c -16.7687,-18.7145 -30.1722,-39.7411 -40.2076,-63.0713 -22.7779,-52.9957 -3.9174,-104.4434 36.4304,-141.7579 67.332,-62.2385 156.0055,-97.8074 231.9221,-149.2293 23.3502,-15.8157 42.8688,-35.3201 58.5501,-58.5186 a 2.8329261,2.8329261 0 0 1 4.7787,0.1717 c 19.1723,33.2511 54.3693,57.5485 86.8478,76.8925 32.0693,19.1151 64.3446,37.8782 96.8345,56.2866 109.4541,62.0667 219.1054,147.8243 102.3259,279.3408 a 2.6612337,2.6898491 58.8 0 0 -0.5981,2.4323 c 0.5552,2.3264 2.0032,3.5025 4.3496,3.5196 0.993,0 1.8428,-0.349 2.5497,-1.0558 34.9393,-36.0555 65.2688,-75.2586 85.5,-122.5313 53.1388,-124.0192 -53.9373,-208.1514 -145.85,-264.3234 -38.9169,-23.7909 -77.7109,-47.7563 -116.3789,-71.9077 -30.6184,-19.1151 -119.0429,-78.4091 -111.6888,-120.8171 a 3.2049265,3.2335419 34.2 0 0 -0.4264,-2.2864 l -5.5256,-8.7563 c -0.2575,-0.4092 -0.5437,-0.6124 -0.8614,-0.6095 z m -670.00985,644.7968 a 0.85846246,0.85846246 0 0 0 -0.32909,0.057 l -42.23635,17.1979 a 0.85846246,0.85846246 0 0 0 -0.54655,0.7984 l -0.0859,41.6669 a 0.85846246,0.85846246 0 0 0 1.17609,0.7983 l 40.77697,-15.8786 a 0.85846246,0.85846246 0 0 0 0.54084,-0.7755 l 1.54809,-42.9804 a 0.85846246,0.85846246 0 0 0 -0.84415,-0.887 z m 126.25977,9.6005 c -3.63128,0 -7.80625,0.8442 -12.38473,2.5897 -27.49942,10.5019 -51.42476,28.1004 -73.51587,47.4158 -14.99447,13.1059 -23.3187,36.1728 -28.29778,54.9159 -3.40523,12.8769 -0.97579,30.9017 17.82454,26.9242 28.12896,-5.9234 56.48683,-28.6412 78.14869,-46.9551 18.39973,-15.5667 27.78554,-38.8883 32.19234,-61.9524 2.89876,-15.066 -3.07324,-22.9037 -13.96719,-22.9381 z m -30.87316,23.004 c 2.9474,0.086 5.39115,2.0546 5.98063,5.7116 3.86309,23.6078 -3.80299,40.0616 -18.4827,57.9748 -7.6117,9.3287 -13.33764,18.9434 -25.58504,22.4632 a 5.5227752,5.4941598 79.4 0 1 -6.98216,-4.7788 c -1.25908,-13.5923 -1.54524,-27.2419 5.55139,-39.6038 8.06955,-14.0788 20.7147,-32.8476 35.30856,-40.6883 1.42218,-0.7582 2.87013,-1.1159 4.20932,-1.0787 z m 183.77114,46.7462 c -73.5989,-4.0635 -147.3695,40.6939 -200.07906,89.0539 a 2.6612337,2.6612337 0 0 0 0.45785,4.2609 c 5.11357,2.9359 9.74641,4.0662 13.90423,3.3795 36.18992,-5.9892 72.62594,-8.1841 109.31088,-6.5815 47.8737,2.0602 90.9684,22.7463 107.9946,70.1907 0.3234,0.8956 0.7927,0.9815 1.4022,0.2575 2.9588,-3.491 4.1406,-6.7131 3.5483,-9.6691 -15.1376,-76.0312 -90.4248,-99.4099 -158.10027,-93.9444 a 2.5181566,2.5181566 0 0 1 -1.43072,-4.7244 c 44.29669,-24.8382 98.63729,-39.6324 145.73839,-13.5351 0.8584,0.495 1.4965,0.289 1.9172,-0.6267 10.5877,-23.2357 -2.2292,-36.8309 -24.6636,-38.0613 z m 1017.567,117.4577 a 2.9187723,2.9187723 0 0 1 1.1704,0.2288 l 74.3084,31.8175 a 2.9187723,2.9187723 0 0 1 0.229,5.2653 l -70.5026,37.1714 a 2.9187723,2.9187723 0 0 1 -2.6041,0.057 l -55.202,-26.2404 a 2.9187723,2.9187723 0 0 1 -0.598,-4.8903 l 51.3618,-42.7543 a 2.9187723,2.9187723 0 0 1 1.8371,-0.6668 z m 105.2303,45.3095 c 0.6868,0 1.3764,0.1432 2.0718,0.4264 l 80.209,34.3099 a 1.6024633,1.6024633 0 0 1 -0.029,2.9502 c -29.2078,11.7896 -57.8232,24.8468 -85.8463,39.1746 a 5.0649285,5.1221593 36.1 0 1 -3.0017,0.4835 c -3.1105,-0.4749 -5.5171,-1.1331 -7.2169,-1.9715 -21.1753,-10.5506 -42.6884,-21.7907 -64.5506,-33.7118 a 1.6024633,1.6596941 6.6 0 1 -0.8327,-1.0846 c -0.3233,-1.3163 0.2003,-2.3292 1.5767,-3.036 25.0099,-12.9915 50.2001,-25.3419 75.5734,-37.0541 0.6752,-0.3149 1.3592,-0.4751 2.0459,-0.4866 z m 320.404,9.3688 c 50.4203,1.8485 100.5288,11.3689 150.3311,28.5467 a 1.0301549,1.0301549 0 0 1 0.6037,1.4308 c -7.2969,15.0803 -16.3136,26.3805 -31.4512,34.9366 -36.7422,20.7747 -85.3598,31.62 -125.5644,19.3725 -6.1809,-1.8886 -15.3293,-5.4426 -27.4422,-10.6707 -39.1659,-16.9002 -78.8355,-34.0609 -119.0115,-51.4791 a 2.4895412,2.4895412 0 0 1 0.3462,-4.6958 c 51.0413,-13.4778 101.7679,-19.2924 152.1883,-17.441 z m -501.5081,3.9717 a 7.1252385,7.1538539 42.3 0 1 3.4711,0.7097 l 53.6538,26.0401 a 1.860002,1.860002 0 0 1 0.1432,3.2593 c -84.2725,50.1055 -168.0298,107.0245 -241.1422,172.2391 -1.6396,1.4679 -3.5311,1.8972 -5.6658,1.2847 l -219.3687,-63.0941 a 2.8043108,2.8043108 0 0 1 -1.0558,-4.8103 c 20.9865,-17.9704 40.2246,-37.6378 57.7172,-59.002 0.6096,-0.7441 1.3879,-1.0789 2.3408,-1.0016 121.7586,11.389 242.1436,-10.0469 346.504,-74.5746 a 7.1252385,7.1538539 42.3 0 1 3.3995,-1.0503 z m -1643.96707,6.4071 c 85.77184,0.4492 170.91415,18.3968 250.40777,50.8467 a 2.4323103,2.4323103 0 0 1 -0.28615,4.6042 c -94.51672,25.4677 -277.8843,66.362 -337.89083,-46.0965 a 2.6612337,2.6326183 72.1 0 1 1.9716,-3.866 c 28.54388,-3.8488 57.20795,-5.64 85.79761,-5.4884 z m 439.89905,17.0119 c 0.60951,0 1.20185,0.1717 1.77416,0.4979 27.25904,15.2233 53.87424,31.5141 79.83701,48.8751 2.84151,1.9058 3.00462,3.7973 0.48646,5.6658 a 2.8329261,2.9760032 20.4 0 1 -1.00726,0.4865 l -101.32146,27.013 a 7.3541617,7.3255463 54.8 0 1 -6.09795,-1.0617 c -23.80803,-16.5225 -48.57181,-31.4283 -74.28848,-44.7231 -0.41779,-0.2003 -0.85561,-0.3805 -1.31345,-0.515 -1.39071,-0.3434 -2.2692,-1.3048 -2.63262,-2.8902 -0.45784,-2.0603 0.32622,-3.3795 2.34932,-3.9518 l 101.09827,-29.2449 c 0.37773,-0.1145 0.75259,-0.1717 1.116,-0.143 z m 297.75772,42.5195 c 44.0105,-0.3891 88.0067,2.4553 131.9886,8.5418 15.2807,2.1176 31.972,5.7288 50.077,10.8424 83.0991,23.5018 165.9322,47.0323 248.4962,70.5942 a 2.5181566,2.4895412 31 0 1 1.0559,4.2064 l -78.3175,75.373 c -1.4508,1.3936 -2.9388,1.4337 -4.4668,0.1145 -102.758,-88.021 -235.359,-128.0539 -365.1299,-72.2539 a 3.3193882,3.3193882 0 0 1 -3.2936,-0.3463 l -113.5431,-81.7542 a 2.4609257,2.4609257 0 0 1 1.0559,-4.4325 c 44.0391,-6.8677 88.0668,-10.4961 132.0773,-10.8882 z m 338.3429,211.1561 a 3.7486195,3.7772349 42.2 0 1 2.3666,0.8956 c 37.8582,31.7631 80.1804,82.215 91.2831,130.7181 15.0803,65.9586 -32.2524,108.5669 -65.2746,159.159 a 1.6024633,1.6024633 0 0 1 -2.8043,-0.229 c -34.6533,-76.6892 -103.728,-132.4035 -77.3447,-215.9605 8.4416,-26.6981 29.0705,-52.5379 48.9868,-73.4272 a 3.7486195,3.7772349 42.2 0 1 2.7871,-1.1532 z" />
</svg>
