<?xml version="1.0" encoding="UTF-8" standalone="no"?>
<svg
   viewBox="0 0 1048.386 977.67962"
   version="1.1"
   id="svg3"
   width="1048.386"
   height="977.67963"
   xmlns="http://www.w3.org/2000/svg"
   xmlns:svg="http://www.w3.org/2000/svg">
  <defs
     id="defs3" />
  <path
     id="path1"
     style="fill: #c02018;fill-opacity:1;stroke:none"
     d="m 523.80691,0.00456756 c -1.571,0.07 -2.984,1.49300004 -2.991,3.58000004 -0.03,7.9540004 -0.02,15.9210004 0.03,23.9010004 0.01,2.326 -0.32,4.51 -1,6.55 -12.74,37.95 -43.26,67.080002 -74.03,91.020002 -39.58,30.78 -82.41,57.529 -123.91,85.629 -40.68,27.55 -79.76,57.841 -106.98,96.861 -0.193,0.28 -0.456,0.462 -0.789,0.549 -28.34,7.2 -55.731,15.51 -84.801,22.27 -40.050001,9.3 -90.460001,9.34 -120.8400013,-23.09 a 1.11,1.13 72.8 0 0 -0.699,-0.36 c -2.14,-0.246 -3.842,0.427 -5.102,2.02 a 0.71,0.71 0 0 0 0.05,0.93 c 3.99,4.02 8.4100003,7.961 11.5000003,12.451 20.92,30.38 21.061,71.769 13.561,106.259 -6.55,30.12 -16.651,65.88 -21.7310003,87 -3.213,13.36 -5.13299995,24.777 -5.75899995,34.25 -1.42000005,21.46 2.01899995,41.451 8.86899995,61.631 10.8700003,32.01 35.9100003,57.249 67.7300003,68.389 15.587,5.453 31.551001,9.414 47.891001,11.881 4.6,0.7 9.389,1.749 13.699,2.379 52.25,7.62 100.91,20.29 146.98,43.81 a 1.36,1.35 49.2 0 1 -0.179,2.491 c -10.667,3.626 -21.411,7.099 -32.231,10.419 -1.43,0.44 -3.289,0.731 -4.869,0.05 -19.567,-8.386 -39.924,-13.913 -61.07,-16.58 -3.53,-0.44 -7.62,-1.121 -11,-1.191 -5.42,-0.12 -11.03,-1.069 -16.1,-1.069 -13.94,-0.01 -27.883,-0.08 -41.83,-0.211 -7.73,-0.07 -15.62,-0.66 -22.390001,-1.97 -7.93,-1.54 -11.001,-4.489 -16.731,-10.729 -0.227,-0.246 -0.5,-0.324 -0.82,-0.23 -2.64,0.76 -3.54,2.21 -2.69,4.99 22.5,73.28 108.970001,50.85 161.170001,36.92 3.53,-0.94 5.1,0.19 8.11,1.73 12.92,6.62 24.946,14.553 36.08,23.799 a 1.16,1.16 0 0 0 1.291,0.131 c 16.113,-8.693 33.063,-15.247 50.849,-19.66 a 1.29,1.28 55.7 0 1 1.051,0.199 c 19.467,13.56 37.988,28.298 55.568,44.211 a 0.63,0.63 0 0 0 0.932,-0.101 c 2.253,-3.12 4.676,-6.196 7.27,-9.229 6.93,-8.13 22.149,-11.5 32.359,-11.42 0.333,0 0.651,-0.08 0.951,-0.23 1.213,-0.627 2.41,-0.58 3.59,0.14 a 1.5,1.48 59 0 0 0.889,0.229 c 4.36,-0.207 8.66,0.18 12.9,1.16 24.18,5.62 45.27,19 64.15,35.23 0.794,0.68 0.86,1.424 0.2,2.231 -0.14,0.167 -0.417,0.456 -0.83,0.869 -12.71,12.59 -23.05,32.09 -21.01,49.99 2.79,24.59 19.69,44.05 27.971,67.11 3.709,10.32 4.11,18.511 3.73,30.211 a 0.27,0.26 59.4 0 0 0.5,0.13 c 0.46,-0.906 0.624,-1.864 0.49,-2.871 a 1.07,1.06 16.2 0 1 1.738,-0.949 l 1.081,0.899 c 0.306,0.253 0.597,0.231 0.871,-0.07 1.106,-1.247 1.553,-2.698 1.34,-4.351 -0.04,-0.3 0.05,-0.554 0.269,-0.76 0.193,-0.18 0.303,-0.41 0.33,-0.69 0.7,-6.586 1.131,-13.196 1.291,-19.83 0.03,-1.586 0.388,-3.066 1.068,-4.439 10.84,-21.99 25.36,-41.101 26.84,-63.961 1.54,-23.67 -13.778,-42.759 -30.808,-57.109 a 0.79,0.8 44.8 0 1 0,-1.211 l 32.699,-28.049 a 2.89,2.9 32.7 0 1 2.67,-0.59 c 22.96,6.527 45.974,13.099 69.041,19.719 4.96,1.43 12.529,4.32 19.459,5.3 0.34,0.05 0.628,-0.06 0.861,-0.31 2.32,-2.63 4.62,-5.289 7.11,-7.529 25.54,-22.994 53.09,-43.267 82.65,-60.821 1.11,-0.66 3.21,-0.44 4.33,0.17 9.62,5.26 19.1,10.844 28.44,16.75 a 1.25,1.26 45.6 0 0 1.33,0.01 c 13.113,-7.893 26.833,-14.527 41.16,-19.9 0.313,-0.12 0.623,-0.112 0.929,0.02 15.12,6.43 30.35,12.589 45.45,19.039 7.713,3.294 15.674,5.817 23.881,7.571 2.6,0.56 8.445,0.506 17.539,-0.16 0.34,-0.03 0.664,-0.117 0.97,-0.27 1.054,-0.54 2.134,-0.513 3.241,0.08 0.28,0.147 0.566,0.174 0.859,0.08 27.17,-8.8 49.859,-25.82 63.269,-51.24 a 0.89,0.87 33.3 0 0 -0.238,-1.1 l -2.451,-1.9 c -0.4,-0.313 -0.727,-0.251 -0.981,0.189 -3.96,6.874 -9.865,10.171 -17.718,9.891 -9.8,-0.34 -20.831,-2.689 -30.721,-3.609 -10.8,-1.01 -22.61,-1.922 -32.34,-1.192 -20.633,1.554 -40.72,5.732 -60.26,12.532 -0.8,0.28 -2.28,0.209 -2.91,-0.06 -9.38,-4.027 -18.763,-8.05 -28.15,-12.07 -0.153,-0.07 -0.26,-0.177 -0.32,-0.33 -0.03,-0.08 -0.06,-0.164 -0.11,-0.25 a 0.71,0.71 0 0 1 0.35,-1.051 c 38.58,-14.92 78.641,-23.089 119.201,-30.449 43.25,-7.85 81.59,-18.6 106.49999,-57.87 6.54,-10.32 11.986,-22.79 16.34,-37.41 5.24,-17.55 9.15,-33.69 8.41,-51.32 -0.46,-11.087 -2.174,-22.024 -5.141,-32.811 -7.73,-28.11 -16.13,-56.179 -22.3,-84.679 -7.59,-35.06 -7.29,-75.96 13.91,-106.7 2.75,-3.99 6.351,-7.33 9.961,-10.63 0.686,-0.627 1.026,-1.223 1.019,-1.789 -0.01,-2.28 -2.849,-2.341 -4.459,-2.651 -0.346,-0.07 -0.644,0.03 -0.89,0.289 -32.65,34.82 -86.43099,32.191 -128.64099,21.531 -23.013,-5.813 -43.356,-11.259 -61.029,-16.339 -4.847,-1.394 -9.734,-2.605 -14.66,-3.631 -1.154,-0.24 -1.901,-0.601 -2.241,-1.081 -28.52,-40.48 -69.04,-71.279 -110.47,-99.259 -35.77,-24.15 -72.3,-47.38 -107.1,-72.92 -35.8,-26.27 -75.819,-60.761002 -88.379,-104.711002 -2.33,-8.14 -1.04,-19.729 -1.06,-28.3090004 0,-0.32 -0.09,-0.614 -0.28,-0.881 -0.787,-1.08300004 -1.788,-1.53100004 -2.73,-1.49000004 z m 0.539,178.46500244 a 0.83,0.83 0 0 1 0.711,0.486 c 5.853,12.474 13.847,23.53 23.98,33.17 19.86,18.88 43.65,34.619 66.61,48.619 26.19,15.97 71.539,41.291 107.019,64.721 44.94,29.69 99.431,75.33 92.121,136.32 -3.88,32.45 -22.01,63.039 -42.89,87.539 -0.24,0.28 -0.244,0.563 -0.01,0.85 l 1.478,1.83 c 0.267,0.333 0.552,0.345 0.852,0.03 21.166,-22.286 39.872,-46.477 56.119,-72.57 0.186,-0.3 0.454,-0.421 0.801,-0.361 14.873,2.646 29.266,1.077 43.179,-4.709 a 0.9,0.9 0 0 1 1.17,1.17 c -5.46,13.393 -7.183,27.164 -5.17,41.31 4.07,28.51 19.2,53.67 17.27,83.68 -2.03,31.4 -17.921,59.599 -50.141,66.719 -15.81,3.5 -34.12,1.35 -49.75,-3.34 a 0.77,0.77 0 0 0 -0.879,0.34 l -2.56,4.181 c -0.267,0.44 -0.154,0.723 0.34,0.85 33.42,8.65 68.311,4.01 97.621,-14.33 25.95,-16.24 41.348,-45.831 39.308,-75.901 -0.58,-8.533 -1.809,-17.369 -3.689,-26.509 -3.067,-14.9 -6.37,-29.754 -9.91,-44.561 -6.15,-25.66 -4.63,-58.26 15.74,-77.73 a 2.29,2.3 42 0 0 -0.18,-3.479 l -1.5,-1.15 c -0.3,-0.234 -0.583,-0.218 -0.849,0.05 -19,18.66 -46.88,21.961 -72.18,16.931 -0.42,-0.09 -0.554,-0.33 -0.401,-0.73 8.4,-21.45 12.94,-45.701 10.35,-68.541 -0.1,-0.84 0.246,-1.112 1.039,-0.819 34.93,12.84 72,23.479 108.75,8.369 1.64,-0.673 2.148,-0.179 1.522,1.481 -13.26,34.91 -7.241,66.009 4.519,100.269 8.5,24.78 17.681,49.14 20.981,75.28 3.07,24.28 -0.471,48.66 -10.151,71.06 -9.43,21.81 -24.501,37.061 -47.211,45.571 -21.03,7.88 -42.369,12.039 -63.879,17.019 -29.56,6.853 -58.274,16.27 -86.14,28.25 -0.5,0.213 -1.244,0.107 -2.231,-0.32 -10.946,-4.753 -21.852,-9.4 -32.718,-13.94 a 0.8,0.8 0 0 1 -0.291,-1.269 c 7.46,-8.48 14.043,-17.611 19.75,-27.391 4.18,-7.17 7.679,-20.479 -1.231,-25.379 a 0.88,0.89 22.9 0 0 -1.269,0.52 c -5.467,17.687 -13.827,33.869 -25.08,48.549 a 1.88,1.88 0 0 1 -2.219,0.59 c -11.467,-4.8 -23.136,-9.553 -35.01,-14.26 -12.29,-4.86 -24.941,-6.01 -37.531,-1.5 a 1.02,1.02 0 0 1 -1.27,-1.389 c 4.887,-10.333 8.316,-21.145 10.289,-32.431 0.14,-0.794 -0.188,-1.14 -0.988,-1.04 -8.93,1.15 -18.661,6.8 -26.111,11.43 a 0.86,0.86 0 0 1 -1.24,-1.08 c 3.37,-7.55 10.091,-21.759 4.771,-29.629 -6.12,-9.06 -17.061,-0.28 -22.301,4.51 -0.386,0.353 -0.317,0.499 0.209,0.439 1.03,-0.13 2.101,-0.59 3.041,-0.66 16.35,-1.27 9.281,23.56 6.651,31.27 -0.1,0.293 -0.273,0.534 -0.52,0.72 l -0.941,0.7 c -0.294,0.22 -0.479,0.508 -0.559,0.861 l -2.181,9.699 a 0.63,0.63 0 0 1 -1.17,0.17 c -1.42,-2.57 -3.66,-4.219 -6.75,-4.539 -26.26,-2.69 -53.77,13.139 -72.36,30.979 -0.233,0.22 -0.254,0.46 -0.06,0.72 1.206,1.62 2.733,2.27 4.58,1.95 13.706,-2.367 27.284,-3.133 40.73,-2.299 16,0.99 29.291,8.57 35.391,23.67 0.146,0.346 0.385,0.43 0.719,0.25 1.126,-0.607 1.519,-1.583 1.179,-2.93 -5.47,-21.64 -24.489,-32.031 -45.289,-32.691 -3.56,-0.114 -6.986,-0.139 -10.279,-0.08 a 0.8,0.8 0 0 1 -0.4,-1.511 c 15.75,-8.62 34.179,-13.959 50.949,-5.049 0.34,0.18 0.64,0.133 0.9,-0.141 9.033,-9.353 18.777,-17.892 29.231,-25.619 a 0.57,0.58 71.3 0 1 0.92,0.449 c 0.17,7.23 -1.4,24.76 -6.59,30.26 -0.22,0.233 -0.187,0.424 0.1,0.57 l 3.141,1.561 c 0.273,0.14 0.523,0.107 0.75,-0.1 8.02,-7.46 19.89,-4.351 29.17,-0.441 13.386,5.64 26.8,11.36 40.24,17.16 a 1.02,1.02 0 0 1 0.33,1.651 c -5.313,5.413 -10.977,10.422 -16.99,15.029 a 2.62,2.62 0 0 1 -2.59,0.33 c -13.88,-5.76 -40.921,-15.06 -52.131,-0.86 a 0.24,0.24 0 0 0 0.311,0.36 c 12.59,-6.9 32.979,-0.279 45.269,4.711 a 0.93,0.93 0 0 1 0.141,1.66 c -33.74,20.37 -71.752,26.3 -110.682,21.65 -0.393,-0.05 -0.515,-0.254 -0.369,-0.621 3.4,-8.2 4.121,-18.79 -1.949,-26.09 a 1.79,1.79 0 0 0 -3.131,0.78 c -1.667,8.093 -4.673,15.623 -9.019,22.59 a 1.46,1.46 0 0 1 -1.541,0.66 c -18.327,-3.78 -36.053,-9.456 -53.18,-17.03 a 0.99,0.99 0 0 1 0.221,-1.869 c 13.01,-2.42 31.25,-8.33 40.49,-18.57 a 0.82,0.82 0 0 0 -0.281,-1.301 l -61.229,-25.879 c -0.367,-0.153 -0.551,-0.43 -0.551,-0.83 v -9.66 a 0.51,0.52 81.3 0 0 -0.67,-0.49 l -14.25,4.289 c -0.393,0.12 -0.774,0.09 -1.14,-0.1 -5.18,-2.686 -10.55,-4.699 -16.11,-6.039 -27.88,-6.74 -58.76,11.8 -78.3,30.1 -0.254,0.24 -0.254,0.484 0,0.73 1.46,1.42 3.12,1.986 4.98,1.699 25.66,-3.93 64.791,-8.709 76.301,22.061 0.12,0.32 0.29,0.35 0.51,0.09 0.993,-1.173 1.377,-2.298 1.15,-3.371 -5.72,-26.93 -38.23,-33.169 -60.91,-29.979 a 0.67,0.67 0 0 1 -0.451,-1.23 c 8.533,-5.4 17.723,-9.301 27.57,-11.701 8.82,-2.154 17.766,-1.286 26.84,2.601 6.286,2.693 12.467,5.319 18.541,7.879 a 1.52,1.53 11.2 0 1 0.939,1.41 v 9.481 c 0,0.3 0.143,0.41 0.43,0.33 l 14.769,-4.141 a 1.28,1.34 49.6 0 1 0.852,0.05 l 39.789,16.879 a 1.4,1.4 0 0 1 0.32,2.39 c -15.72,12.45 -41.64,11.56 -60.31,11.01 a 0.14,0.14 0 0 0 -0.06,0.27 c 28.427,13.253 58.084,22.601 88.971,28.041 a 0.8,0.8 0 0 1 0.5,1.26 c -4.853,6.473 -10.113,12.776 -15.779,18.91 -0.627,0.673 -1.558,0.83 -2.791,0.47 -29.54,-8.646 -59.103,-17.214 -88.69,-25.701 -19.41,-5.57 -42.44,-6.07 -65,-4.76 -18.073,1.047 -37.972,3.851 -59.699,8.411 -0.347,0.07 -0.674,0.02 -0.98,-0.161 l -31.26,-18.369 a 0.53,0.52 52.8 0 1 0.129,-0.961 c 13.313,-3.586 26.941,-5.917 40.881,-6.99 4.68,-0.367 8.969,-0.2 12.869,0.5 a 1.72,1.71 78.6 0 0 1.74,-2.619 c -4.04,-6.24 -11.369,-7.551 -18.689,-7.191 -15.78,0.78 -31.51,6.11 -46.43,11 -1.65,0.54 -2.99,0 -4.42,-0.719 -41.87,-21.26 -85.771,-34.891 -131.631,-44.461 -23.21,-4.84 -48.57,-9.589 -69.490001,-20.469 -40.62,-21.16 -51.84,-76.471 -44.51,-117.771 6.58,-37.12 24.311,-70.479 30.471,-107.459 3.493,-20.96 1.389,-41.445 -6.311,-61.451 a 0.73,0.73 0 0 1 0.949,-0.94 c 16.4,6.48 33.622001,8.931 51.352001,7.111 20.12,-2.05 39.429,-8.41 58.389,-15.24 a 0.67,0.67 0 0 1 0.89,0.699 c -2.57,23.04 1.95,46.971 10.26,68.541 a 0.74,0.74 0 0 1 -0.58,1 c -25.05,3.86 -52.87,2.529 -71.52,-17.121 -0.273,-0.286 -0.579,-0.325 -0.919,-0.119 l -1.69,1.039 a 2.27,2.27 0 0 0 -0.381,3.571 c 21.36,20.5 21.41,52.939 15.27,79.459 -3.974,17.113 -7.269,32.204 -9.889,45.271 -2.1,10.43 -3.822,22.759 -3.262,33.959 0.92,18.08 8.412,35.62 19.922,49.42 15.99,19.17 42.639,30.681 67.049,34.041 16.947,2.333 33.691,1.313 50.231,-3.061 0.42,-0.113 0.515,-0.357 0.289,-0.73 l -2.729,-4.369 a 0.82,0.82 0 0 0 -0.932,-0.35 c -35.62,11 -74.619,6.21 -91.769,-30.56 -6.82,-14.62 -9.48,-32.461 -7.5,-48.881 3.71,-30.89 21.03,-57.529 17.09,-87.819 -0.934,-7.12 -2.782,-14.068 -5.549,-20.841 a 0.92,0.91 89.9 0 1 1.189,-1.2 c 13.934,5.747 28.327,7.28 43.18,4.6 0.347,-0.07 0.611,0.05 0.791,0.35 16.2,26.08 34.873,50.246 56.02,72.5 a 0.64,0.65 44.7 0 0 0.939,-0.01 l 1.561,-1.7 a 0.61,0.61 0 0 0 0.01,-0.81 c -21.15,-24.92 -39.43,-55.609 -43.09,-88.629 -4.64,-41.93 20.71,-77.941 50.92,-103.811 53.91,-46.16 118.809,-75.79 177.459,-115.07 24.32,-16.29 50.111,-36.649 61.341,-62.939 a 0.83,0.83 0 0 1 0.809,-0.506 z m -0.223,78.594 c -0.666,-0.02 -1.374,0.21 -2.127,0.691 a 1.42,1.42 0 0 0 -0.609,0.84 c -1.29,4.92 -0.531,10.7 -0.571,18.02 -0.01,1.833 -0.379,3.52 -1.099,5.06 -12.9,27.5 -45.371,47.83 -70.791,63.19 -16.027,9.686 -32.077,19.32 -48.151,28.9 -43.54,25.95 -107.559,64.831 -104.689,123.041 1.97,40.1 31.431,76.399 58.311,103.699 0.326,0.333 0.603,0.297 0.83,-0.109 l 1.048,-1.91 c 0.06,-0.107 0.155,-0.161 0.282,-0.161 0.09,0 0.176,0 0.269,0.01 0.394,0.02 0.456,-0.116 0.19,-0.41 -16.59,-18.01 -32.73,-44.42 -29.44,-70.07 3.25,-25.46 22.77,-45.21 42.51,-59.77 40.99,-30.24 89.02,-48.81 129.75,-79.23 9.053,-6.76 16.705,-15.192 22.951,-25.299 0.18,-0.28 0.276,-0.586 0.289,-0.92 0.03,-0.746 0.4,-1.163 1.1,-1.25 a 1.03,1.03 0 0 1 1.031,0.52 c 4.987,9.246 11.705,17.21 20.158,23.89 36.67,28.99 80.361,47.37 119.551,72.68 36.22,23.41 72.23,58.429 49.69,105.619 -5.814,12.187 -13.266,23.27 -22.36,33.25 -0.253,0.28 -0.283,0.581 -0.09,0.901 l 1.09,1.849 a 0.83,0.83 0 0 0 1.311,0.16 c 23.89,-24.06 48.09,-54.179 56,-87.939 8.53,-36.42 -8.65,-66.951 -34.76,-90.701 -47.73,-43.43 -109.49,-66.19 -159.26,-106.75 -11.68,-9.52 -23.28,-22.22 -28.72,-36 -2.05,-5.17 -0.96,-13.918 -1.01,-19.578 a 1.4,1.39 24.9 0 0 -0.33,-0.901 c -0.713,-0.855 -1.498,-1.296 -2.354,-1.322 z m 0.182,164.039 c -0.09,10e-4 -0.18,0.05 -0.28,0.133 l -2,1.789 c -0.246,0.213 -0.369,0.484 -0.369,0.81 -0.05,3.39 0.451,6.95 -1.349,10.01 -8.5,14.35 -22.991,24.611 -36.881,33.281 -13.567,8.48 -27.166,16.909 -40.799,25.289 -14.3,8.79 -27.591,18.261 -39.461,30.981 -34.65,37.13 -8.88,75.17 18.09,104.51 0.233,0.253 0.507,0.316 0.82,0.189 l 0.99,-0.4 a 1.08,1.08 0 0 0 0.401,-1.729 c -5.86,-6.54 -10.544,-13.888 -14.051,-22.041 -7.96,-18.52 -1.369,-36.499 12.731,-49.539 23.53,-21.75 54.518,-34.18 81.048,-52.15 8.16,-5.527 14.981,-12.343 20.461,-20.45 a 0.99,0.99 0 0 1 1.67,0.06 c 6.7,11.62 19,20.111 30.35,26.871 11.207,6.68 22.486,13.237 33.84,19.67 38.25,21.69 76.569,51.659 35.759,97.619 a 0.93,0.94 58.8 0 0 -0.209,0.85 c 0.194,0.813 0.7,1.224 1.52,1.23 0.347,0 0.644,-0.122 0.891,-0.369 12.21,-12.6 22.809,-26.3 29.879,-42.82 18.57,-43.34 -18.849,-72.741 -50.969,-92.371 -13.6,-8.314 -27.157,-16.689 -40.67,-25.129 -10.7,-6.68 -41.601,-27.401 -39.031,-42.221 a 1.12,1.13 34.2 0 0 -0.149,-0.799 l -1.931,-3.06 c -0.09,-0.143 -0.19,-0.214 -0.301,-0.213 z m -234.143,225.332 a 0.3,0.3 0 0 0 -0.115,0.02 l -14.76,6.01 a 0.3,0.3 0 0 0 -0.191,0.279 l -0.03,14.561 a 0.3,0.3 0 0 0 0.411,0.279 l 14.25,-5.549 a 0.3,0.3 0 0 0 0.189,-0.271 l 0.541,-15.02 a 0.3,0.3 0 0 0 -0.295,-0.31 z m 44.123,3.355 c -1.269,0 -2.728,0.295 -4.328,0.905 -9.61,3.67 -17.971,9.82 -25.691,16.57 -5.24,4.58 -8.149,12.641 -9.889,19.191 -1.19,4.5 -0.341,10.799 6.229,9.409 9.83,-2.07 19.74,-10.009 27.31,-16.409 6.43,-5.44 9.71,-13.59 11.25,-21.65 1.013,-5.265 -1.074,-8.004 -4.881,-8.016 z m -10.789,8.039 c 1.03,0.03 1.884,0.718 2.09,1.996 1.35,8.25 -1.329,14 -6.459,20.26 -2.66,3.26 -4.661,6.62 -8.941,7.85 a 1.93,1.92 79.4 0 1 -2.44,-1.67 c -0.44,-4.75 -0.54,-9.52 1.94,-13.84 2.82,-4.92 7.239,-11.479 12.339,-14.219 0.497,-0.265 1.003,-0.39 1.471,-0.377 z m 64.221,16.336 c -25.72,-1.42 -51.5,14.221 -69.92,31.121 a 0.93,0.93 0 0 0 0.16,1.489 c 1.787,1.026 3.406,1.421 4.859,1.181 12.647,-2.093 25.38,-2.86 38.2,-2.3 16.73,0.72 31.79,7.949 37.74,24.529 0.113,0.313 0.277,0.343 0.49,0.09 1.034,-1.22 1.447,-2.346 1.24,-3.379 -5.29,-26.57 -31.6,-34.74 -55.25,-32.83 a 0.88,0.88 0 0 1 -0.5,-1.651 c 15.48,-8.68 34.47,-13.85 50.93,-4.73 0.3,0.173 0.523,0.101 0.67,-0.219 3.7,-8.12 -0.779,-12.871 -8.619,-13.301 z m 355.601,41.047 a 1.02,1.02 0 0 1 0.409,0.08 l 25.968,11.119 a 1.02,1.02 0 0 1 0.08,1.84 l -24.638,12.99 a 1.02,1.02 0 0 1 -0.91,0.02 l -19.291,-9.17 a 1.02,1.02 0 0 1 -0.209,-1.709 l 17.949,-14.941 a 1.02,1.02 0 0 1 0.642,-0.233 z m 36.774,15.834 c 0.24,0 0.481,0.05 0.724,0.149 l 28.03,11.99 a 0.56,0.56 0 0 1 -0.01,1.031 c -10.207,4.12 -20.207,8.683 -30,13.69 a 1.77,1.79 36.1 0 1 -1.049,0.169 c -1.087,-0.166 -1.928,-0.396 -2.522,-0.689 -7.4,-3.687 -14.918,-7.615 -22.558,-11.781 a 0.56,0.58 6.6 0 1 -0.291,-0.379 c -0.113,-0.46 0.07,-0.814 0.551,-1.061 8.74,-4.54 17.543,-8.856 26.41,-12.949 0.236,-0.11 0.475,-0.166 0.715,-0.17 z m 111.969,3.274 c 17.62,0.646 35.131,3.973 52.535,9.976 a 0.36,0.36 0 0 1 0.211,0.5 c -2.55,5.27 -5.701,9.219 -10.991,12.209 -12.84,7.26 -29.83,11.05 -43.88,6.77 -2.16,-0.66 -5.357,-1.902 -9.59,-3.729 -13.687,-5.906 -27.55,-11.903 -41.59,-17.99 a 0.87,0.87 0 0 1 0.121,-1.641 c 17.837,-4.71 35.564,-6.742 53.184,-6.095 z m -175.258,1.388 a 2.49,2.5 42.3 0 1 1.213,0.248 l 18.75,9.1 a 0.65,0.65 0 0 1 0.05,1.139 c -29.45,17.51 -58.72,37.401 -84.27,60.191 -0.573,0.513 -1.234,0.663 -1.98,0.449 l -76.661,-22.049 a 0.98,0.98 0 0 1 -0.369,-1.681 c 7.334,-6.28 14.057,-13.153 20.17,-20.619 0.213,-0.26 0.485,-0.377 0.818,-0.35 42.55,3.98 84.62,-3.511 121.09,-26.061 a 2.49,2.5 42.3 0 1 1.188,-0.367 z m -574.504,2.239 c 29.974,0.157 59.728,6.429 87.508,17.769 a 0.85,0.85 0 0 1 -0.1,1.609 c -33.03,8.9 -97.11,23.191 -118.08,-16.109 a 0.93,0.92 72.1 0 1 0.689,-1.351 c 9.975,-1.345 19.992,-1.971 29.983,-1.918 z m 153.728,5.945 c 0.213,0 0.42,0.06 0.62,0.174 9.526,5.32 18.827,11.013 27.9,17.08 0.993,0.666 1.05,1.327 0.17,1.98 a 0.99,1.04 20.4 0 1 -0.352,0.17 l -35.408,9.44 a 2.57,2.56 54.8 0 1 -2.131,-0.371 c -8.32,-5.774 -16.974,-10.983 -25.961,-15.629 -0.146,-0.07 -0.299,-0.133 -0.459,-0.18 -0.486,-0.12 -0.793,-0.456 -0.92,-1.01 -0.16,-0.72 0.114,-1.181 0.821,-1.381 l 35.33,-10.22 c 0.132,-0.04 0.263,-0.06 0.39,-0.05 z m 104.055,14.859 c 15.38,-0.136 30.755,0.858 46.125,2.985 5.34,0.74 11.173,2.002 17.5,3.789 29.04,8.213 57.987,16.436 86.84,24.67 a 0.88,0.87 31 0 1 0.369,1.47 l -27.369,26.34 c -0.507,0.487 -1.027,0.501 -1.561,0.04 -35.91,-30.76 -82.249,-44.75 -127.599,-25.25 a 1.16,1.16 0 0 1 -1.151,-0.121 l -39.679,-28.57 a 0.86,0.86 0 0 1 0.369,-1.549 c 15.39,-2.4 30.776,-3.668 46.156,-3.805 z m 118.238,73.791 a 1.31,1.32 42.2 0 1 0.827,0.313 c 13.23,11.1 28.02,28.731 31.9,45.681 5.27,23.05 -11.271,37.94 -22.811,55.62 a 0.56,0.56 0 0 1 -0.98,-0.08 c -12.11,-26.8 -36.249,-46.27 -27.029,-75.47 2.95,-9.33 10.159,-18.36 17.119,-25.66 a 1.31,1.32 42.2 0 1 0.974,-0.403 z" />
</svg>
