<?xml version="1.0" encoding="UTF-8" standalone="no"?>
<!-- Generator: Adobe Illustrator 27.5.0, SVG Export Plug-In . SVG Version: 6.00 Build 0)  -->

<svg
   version="1.1"
   id="Layer_1"
   x="0px"
   y="0px"
   viewBox="0 0 360.29999 360"
   xml:space="preserve"
   sodipodi:docname="constellation_1.svg"
   width="360.29999"
   height="360"
   inkscape:version="1.4.2 (ebf0e940d0, 2025-05-08)"
   xmlns:inkscape="http://www.inkscape.org/namespaces/inkscape"
   xmlns:sodipodi="http://sodipodi.sourceforge.net/DTD/sodipodi-0.dtd"
   xmlns="http://www.w3.org/2000/svg"
   xmlns:svg="http://www.w3.org/2000/svg"><defs
   id="defs14" /><sodipodi:namedview
   id="namedview14"
   pagecolor="#ffffff"
   bordercolor="#000000"
   borderopacity="0.25"
   inkscape:showpageshadow="2"
   inkscape:pageopacity="0.0"
   inkscape:pagecheckerboard="0"
   inkscape:deskcolor="#d1d1d1"
   inkscape:zoom="0.28557692"
   inkscape:cx="180.3367"
   inkscape:cy="180.3367"
   inkscape:window-width="1920"
   inkscape:window-height="1080"
   inkscape:window-x="0"
   inkscape:window-y="0"
   inkscape:window-maximized="1"
   inkscape:current-layer="Layer_1" />
<style
   type="text/css"
   id="style1">
	.st0{fill:#21314F;}
	.st1{fill:#304C7A;}
	.st2{fill:#4A668D;}
	.st3{fill:#D7A64B;}
	.st4{fill:#E06236;}
	.st5{fill:#C72138;}
	.st6{fill:#F4F5F7;}
</style>
<g
   id="g14"
   transform="translate(-339.7,-20)">
	<circle
   class="st0"
   cx="520"
   cy="200"
   r="180"
   id="circle1" />
	<path
   class="st1"
   d="M 659.7,153.9 C 643.8,132 619.2,88.8 632.3,59.5 630.4,58 628.4,56.4 626.4,55 c 0,0 -0.1,0 -0.1,-0.1 -1,-0.7 -2,-1.4 -3,-2.1 -0.1,0 -0.1,-0.1 -0.2,-0.1 -1.1,-0.7 -2.1,-1.4 -3.2,-2.2 -2,-1.4 -4,-2.6 -6.1,-3.9 -0.1,0 -0.1,-0.1 -0.2,-0.1 -1,-0.6 -2,-1.3 -3.1,-1.8 -0.1,0 -0.1,-0.1 -0.2,-0.1 -2.1,-1.3 -4.3,-2.4 -6.4,-3.5 0,0 -0.1,0 -0.1,-0.1 -1.1,-0.5 -2.1,-1.1 -3.2,-1.6 -0.1,-0.1 -0.2,-0.1 -0.3,-0.2 -1.1,-0.5 -2.1,-1.1 -3.2,-1.5 -0.1,0 -0.2,-0.1 -0.3,-0.1 -2.2,-1 -4.3,-2 -6.6,-3 -0.1,0 -0.2,-0.1 -0.3,-0.1 -1.1,-0.5 -2.2,-0.9 -3.3,-1.4 -0.1,-0.1 -0.3,-0.1 -0.4,-0.2 -1.1,-0.5 -2.2,-0.9 -3.3,-1.3 -0.1,0 -0.2,-0.1 -0.2,-0.1 -1.2,-0.5 -2.3,-0.8 -3.4,-1.3 v 0 C 561.2,23.6 541.1,20 520,20 c -21.1,0 -41.2,3.6 -60,10.2 v 0 c -1.2,0.4 -2.3,0.8 -3.4,1.3 -0.1,0 -0.2,0.1 -0.2,0.1 -1.1,0.5 -2.2,0.8 -3.3,1.3 -0.1,0.1 -0.3,0.1 -0.4,0.2 -1.1,0.5 -2.2,0.9 -3.3,1.4 -0.1,0 -0.2,0.1 -0.3,0.1 -2.2,0.9 -4.4,1.9 -6.6,3 -0.1,0 -0.2,0.1 -0.3,0.1 -1.1,0.5 -2.1,1 -3.2,1.5 -0.1,0.1 -0.2,0.1 -0.3,0.2 -1.1,0.5 -2.1,1.1 -3.2,1.6 0,0 -0.1,0 -0.1,0.1 -2.2,1.2 -4.3,2.4 -6.4,3.5 -0.1,0 -0.1,0.1 -0.2,0.1 -1,0.6 -2.1,1.2 -3.1,1.8 -0.1,0 -0.1,0.1 -0.2,0.1 -1.5,1 -3.1,2 -4.6,3 -1.5,1 -3.1,2.1 -4.5,3.1 -0.1,0 -0.1,0.1 -0.2,0.1 -1,0.7 -2,1.4 -3,2.1 0,0 -0.1,0 -0.1,0.1 -2,1.4 -4,3 -5.9,4.5 13.1,29.2 -11.5,72.5 -27.4,94.4 -12.6,17.4 -27.9,34.1 -40.1,52.3 0.1,3.8 0.4,7.6 0.7,11.4 v 0 c 0.4,3.7 0.8,7.5 1.4,11.1 v 0.1 c 0.3,1.8 0.6,3.6 1,5.4 0.4,1.8 0.7,3.6 1.1,5.4 0,0.1 0,0.1 0,0.2 0.3,1.2 0.5,2.4 0.8,3.5 v 0 c 0.5,2.4 1.2,4.7 1.9,7 0,0.1 0,0.2 0.1,0.2 0.4,1.2 0.6,2.3 1,3.4 v 0 c 0.7,2.3 1.4,4.5 2.3,6.8 0,0.1 0.1,0.2 0.1,0.3 0.4,1.1 0.8,2.2 1.3,3.3 v 0 C 377.7,332 443.2,380 520,380 c 76.8,0 142.3,-48 168.2,-115.7 v 0 c 0.5,-1.1 0.8,-2.2 1.3,-3.3 0,-0.1 0.1,-0.2 0.1,-0.3 0.8,-2.3 1.5,-4.5 2.3,-6.8 v 0 c 0.4,-1.2 0.7,-2.3 1,-3.4 0,-0.1 0,-0.2 0.1,-0.2 0.5,-1.7 1,-3.5 1.4,-5.2 0.5,-1.7 0.9,-3.5 1.3,-5.3 0,-0.1 0,-0.1 0,-0.2 0.4,-1.8 0.8,-3.6 1.1,-5.4 0.4,-1.8 0.6,-3.6 1,-5.4 v -0.1 c 0.3,-1.9 0.6,-3.9 0.8,-5.9 0.2,-1.7 0.5,-3.5 0.6,-5.3 v 0 c 0.4,-3.8 0.6,-7.6 0.7,-11.4 -12.3,-18.2 -27.5,-34.9 -40.2,-52.2 z"
   id="path1" />
	<path
   class="st2"
   d="M 639,183.6 C 596.6,144.9 562.6,88.2 579.9,30.3 c -1.1,-0.4 -2.2,-0.7 -3.3,-1.1 -0.2,-0.1 -0.3,-0.1 -0.5,-0.2 -1.1,-0.4 -2.2,-0.7 -3.3,-1 -0.1,0 -0.3,-0.1 -0.4,-0.1 -2.3,-0.7 -4.5,-1.4 -6.8,-1.9 -0.2,0 -0.3,-0.1 -0.5,-0.1 -1.1,-0.3 -2.2,-0.5 -3.3,-0.8 -0.2,0 -0.3,-0.1 -0.5,-0.1 -1.2,-0.3 -2.3,-0.5 -3.4,-0.8 0,0 0,0 -0.1,0 -1.2,-0.3 -2.3,-0.5 -3.4,-0.7 -0.1,0 -0.3,-0.1 -0.4,-0.1 -1.1,-0.2 -2.3,-0.5 -3.3,-0.6 -0.2,0 -0.4,-0.1 -0.5,-0.1 -1.1,-0.2 -2.3,-0.4 -3.3,-0.5 -0.1,0 -0.2,0 -0.4,-0.1 -1.1,-0.2 -2.2,-0.4 -3.3,-0.5 -0.1,0 -0.3,0 -0.4,-0.1 -1.1,-0.2 -2.3,-0.3 -3.3,-0.4 -0.2,0 -0.5,-0.1 -0.6,-0.1 -1.1,-0.1 -2.3,-0.3 -3.3,-0.4 -0.2,0 -0.4,0 -0.5,0 -1.1,-0.1 -2.3,-0.2 -3.3,-0.3 -0.1,0 -0.2,0 -0.3,0 -1.2,-0.1 -2.3,-0.1 -3.4,-0.2 -0.2,0 -0.5,0 -0.6,0 -1.1,-0.1 -2.3,-0.1 -3.4,-0.1 -0.2,0 -0.5,0 -0.6,0 -1.2,0 -2.4,0 -3.5,0 v 0 0 c -1.2,0 -2.4,0 -3.5,0 -0.2,0 -0.5,0 -0.6,0 -1.2,0 -2.3,0.1 -3.4,0.1 -0.2,0 -0.5,0 -0.6,0 -1.2,0.1 -2.4,0.1 -3.4,0.2 -0.1,0 -0.2,0 -0.3,0 -1.1,0.1 -2.3,0.2 -3.3,0.3 -0.2,0 -0.4,0 -0.5,0 -1.1,0.1 -2.3,0.2 -3.3,0.4 -0.2,0 -0.5,0 -0.6,0.1 -1.2,0.1 -2.3,0.3 -3.4,0.4 -0.1,0 -0.3,0 -0.4,0.1 -1.1,0.2 -2.3,0.3 -3.3,0.5 -0.1,0 -0.2,0 -0.4,0.1 -1.2,0.2 -2.3,0.4 -3.3,0.5 -0.2,0 -0.4,0.1 -0.5,0.1 -1.1,0.2 -2.3,0.4 -3.3,0.6 -0.1,0 -0.3,0.1 -0.4,0.1 -1.2,0.2 -2.3,0.5 -3.4,0.7 0,0 0,0 -0.1,0 -1.2,0.3 -2.3,0.5 -3.4,0.8 -0.2,0 -0.3,0.1 -0.5,0.1 -1.1,0.3 -2.2,0.5 -3.3,0.8 -0.2,0 -0.3,0.1 -0.5,0.1 -2.3,0.6 -4.5,1.3 -6.8,1.9 -0.1,0 -0.3,0.1 -0.4,0.1 -1.1,0.4 -2.2,0.7 -3.3,1 -0.2,0 -0.3,0.1 -0.5,0.2 -1.1,0.4 -2.2,0.7 -3.3,1.1 17.4,58 -16.6,114.6 -59.1,153.3 -32.2,29.4 -49.6,52.8 -49.1,80.7 0.5,1.4 1.1,2.8 1.7,4.3 v 0.1 c 0.5,1.4 1.2,2.7 1.7,4.1 0,0 0,0.1 0.1,0.1 0.6,1.4 1.2,2.7 1.8,4.1 0,0 0,0.1 0.1,0.1 0.6,1.4 1.3,2.7 2,4 v 0 c 0.5,1 1,2 1.5,2.9 0.2,0.3 0.3,0.5 0.5,0.8 0.4,0.7 0.7,1.4 1.2,2.1 0.2,0.3 0.4,0.6 0.5,0.9 0.4,0.6 0.7,1.4 1.1,2 0.2,0.3 0.4,0.6 0.5,0.9 0.4,0.6 0.7,1.3 1.2,1.9 0.2,0.3 0.4,0.5 0.5,0.9 0.4,0.6 0.8,1.4 1.3,2 0.2,0.3 0.4,0.5 0.5,0.8 0.5,0.7 0.9,1.4 1.4,2.1 0.2,0.2 0.3,0.5 0.5,0.6 0.5,0.8 1,1.5 1.5,2.3 0.1,0.1 0.2,0.3 0.3,0.4 3.2,4.6 6.5,9.1 10.1,13.4 v 0 c 0.7,0.8 1.4,1.7 2.2,2.5 l 0.1,0.1 c 0.7,0.8 1.4,1.6 2.1,2.4 l 0.1,0.1 c 0.7,0.8 1.4,1.6 2.2,2.4 v 0 c 32.8,35.3 79.7,57.3 131.7,57.3 52,0 98.9,-22.1 131.7,-57.3 0,0 0,0 0,-0.1 0.7,-0.8 1.4,-1.6 2.2,-2.4 l 0.1,-0.1 c 0.7,-0.8 1.4,-1.6 2.1,-2.4 l 0.1,-0.1 c 0.7,-0.8 1.4,-1.6 2.1,-2.5 v 0 c 3.6,-4.3 7,-8.8 10.1,-13.4 0.1,-0.1 0.2,-0.3 0.3,-0.4 0.5,-0.7 1,-1.5 1.5,-2.3 0.2,-0.2 0.3,-0.5 0.5,-0.6 0.5,-0.7 0.9,-1.4 1.4,-2.1 0.2,-0.3 0.4,-0.5 0.5,-0.8 0.5,-0.6 0.8,-1.4 1.3,-2 0.2,-0.3 0.4,-0.5 0.5,-0.9 0.4,-0.6 0.8,-1.3 1.2,-2 0.2,-0.3 0.4,-0.6 0.5,-0.9 0.4,-0.6 0.7,-1.3 1.1,-2 0.2,-0.3 0.4,-0.6 0.5,-0.9 0.4,-0.7 0.7,-1.4 1.2,-2.1 0.2,-0.3 0.3,-0.5 0.5,-0.8 0.5,-1 1,-1.9 1.5,-2.9 v 0 c 0.6,-1.4 1.4,-2.7 2,-4.1 v -0.1 c 0.6,-1.4 1.3,-2.7 1.9,-4.1 0,0 0,-0.1 0.1,-0.1 0.6,-1.4 1.2,-2.7 1.7,-4.2 v -0.1 c 0.5,-1.4 1.2,-2.8 1.7,-4.3 0.1,-27.4 -17.3,-51 -49.5,-80.3 z"
   id="path2" />
	<path
   class="st3"
   d="m 649,324.6 c -16.7,-16.7 -36.3,-29.9 -58,-39.1 -22.5,-9.5 -46.4,-14.4 -71,-14.4 -20.9,0 -41.4,3.5 -61,10.4 -18.9,6.7 -36.5,16.4 -52.2,28.9 -5.7,4.5 -11.1,9.4 -16.3,14.6 1.8,1.9 3.7,3.8 5.6,5.6 1.4,1.4 3,2.8 4.5,4.2 v 0 c 31.8,28.1 73.6,45.2 119.4,45.2 26.8,0 52.2,-5.9 75,-16.3 16.2,-7.4 31.1,-17.2 44.3,-28.9 1.5,-1.4 3,-2.7 4.5,-4.2 1.9,-1.8 3.8,-3.7 5.6,-5.6 -0.1,0 -0.2,-0.2 -0.4,-0.4 z"
   id="path3" />
	<path
   class="st4"
   d="m 520,285.3 c -39.4,0 -75.7,13.6 -104.4,36.3 -5.2,4.2 -10.1,8.6 -14.8,13.2 v 0 c 31.7,28.1 73.5,45.2 119.3,45.2 26.8,0 52.2,-5.9 75,-16.3 16.2,-7.4 31.1,-17.2 44.3,-28.9 C 608.8,304.2 566.6,285.3 520,285.3 Z"
   id="path4" />
	<path
   class="st5"
   d="m 595,363.7 c -24,-35.4 -64.5,-58.6 -110.4,-58.6 -31.2,0 -59.9,10.8 -82.6,28.7 -0.5,0.4 -0.8,0.7 -1.3,1 31.7,28.1 73.5,45.2 119.3,45.2 26.8,0 52.2,-5.9 75,-16.3 z"
   id="path5" />
	<path
   class="st6"
   d="m 543.1,104.4 -3.4,-1.1 c -8.1,-2.6 -14.6,-9 -17.1,-17.1 l -1.1,-3.4 c -0.2,-0.6 -0.8,-1.1 -1.4,-1.1 -0.6,0 -1.3,0.5 -1.4,1.1 l -1.1,3.4 c -2.6,8.1 -9,14.6 -17.1,17.1 l -3.4,1.1 c -0.6,0.2 -1.1,0.8 -1.1,1.4 0,0.6 0.5,1.3 1.1,1.4 l 3.4,1.1 c 3.3,1 6.2,2.7 9,4.9 3.9,3.3 6.7,7.4 8.2,12.2 l 1.1,3.4 c 0.2,0.6 0.8,1.1 1.4,1.1 v 0 c 0.6,0 1.3,-0.5 1.4,-1.1 l 1.1,-3.4 c 1.5,-4.8 4.4,-9 8.3,-12.3 2.6,-2.2 5.6,-3.8 8.9,-4.8 l 3.4,-1.1 c 0.6,-0.2 1.1,-0.8 1.1,-1.4 -0.2,-0.7 -0.7,-1.2 -1.3,-1.4 z"
   id="path6" />
	<path
   class="st6"
   d="m 537.4,190.1 -2.6,-0.8 c -6.1,-1.9 -10.9,-6.7 -12.8,-12.8 l -0.8,-2.6 c -0.2,-0.5 -0.5,-0.8 -1.1,-0.8 -0.5,0 -0.9,0.4 -1.1,0.8 l -0.8,2.6 c -1.9,6.1 -6.7,10.9 -12.8,12.8 l -2.6,0.8 c -0.5,0.2 -0.8,0.5 -0.8,1.1 0,0.6 0.4,0.9 0.8,1.1 l 2.6,0.8 c 2.4,0.8 4.7,2 6.7,3.7 2.9,2.4 5,5.6 6.2,9.1 l 0.8,2.6 c 0.2,0.5 0.5,0.8 1.1,0.8 v 0 c 0.5,0 0.9,-0.4 1.1,-0.8 l 0.8,-2.6 c 1.2,-3.6 3.3,-6.8 6.2,-9.2 2,-1.6 4.2,-2.9 6.6,-3.6 l 2.6,-0.8 c 0.5,-0.2 0.8,-0.5 0.8,-1.1 -0.2,-0.6 -0.5,-1.1 -0.9,-1.1 z"
   id="path7" />
	<g
   id="g9">
		<path
   class="st6"
   d="m 435,238.5 -1.9,-0.6 c -4.4,-1.4 -8,-5 -9.4,-9.4 l -0.6,-1.9 c -0.1,-0.4 -0.5,-0.5 -0.8,-0.5 -0.4,0 -0.7,0.3 -0.8,0.5 l -0.6,1.9 c -1.4,4.4 -5,8 -9.4,9.4 l -1.9,0.6 c -0.4,0.1 -0.5,0.5 -0.5,0.8 0,0.4 0.3,0.7 0.5,0.8 l 1.9,0.6 c 1.8,0.5 3.4,1.4 4.9,2.7 2.1,1.8 3.7,4.1 4.5,6.7 l 0.6,1.9 c 0.1,0.4 0.5,0.5 0.8,0.5 v 0 c 0.4,0 0.7,-0.3 0.8,-0.5 l 0.6,-1.9 c 0.8,-2.6 2.4,-5 4.5,-6.8 1.4,-1.2 3.1,-2.1 4.9,-2.6 l 1.9,-0.6 c 0.4,-0.1 0.5,-0.5 0.5,-0.8 0,-0.4 -0.3,-0.7 -0.5,-0.8 z"
   id="path8" />
		<path
   class="st6"
   d="m 630.4,238.5 -1.9,-0.6 c -4.4,-1.4 -8,-5 -9.4,-9.4 l -0.6,-1.9 c -0.1,-0.4 -0.5,-0.5 -0.8,-0.5 -0.4,0 -0.7,0.3 -0.8,0.5 l -0.6,1.9 c -1.4,4.4 -5,8 -9.4,9.4 l -1.9,0.6 c -0.4,0.1 -0.5,0.5 -0.5,0.8 0,0.4 0.3,0.7 0.5,0.8 l 1.9,0.6 c 1.8,0.5 3.4,1.4 4.9,2.7 2.1,1.8 3.7,4.1 4.5,6.7 l 0.6,1.9 c 0.1,0.4 0.5,0.5 0.8,0.5 v 0 c 0.4,0 0.7,-0.3 0.8,-0.5 l 0.6,-1.9 c 0.8,-2.6 2.4,-5 4.5,-6.8 1.4,-1.2 3.1,-2.1 4.9,-2.6 l 1.9,-0.6 c 0.4,-0.1 0.5,-0.5 0.5,-0.8 0.2,-0.4 -0.1,-0.7 -0.5,-0.8 z"
   id="path9" />
	</g>
	<g
   id="g11">
		<path
   class="st6"
   d="m 472.9,166.1 -1.2,-0.4 c -2.8,-0.9 -5.1,-3.2 -6,-6 l -0.4,-1.2 c -0.1,-0.2 -0.3,-0.4 -0.5,-0.4 -0.2,0 -0.5,0.2 -0.5,0.4 l -0.4,1.2 c -0.9,2.8 -3.2,5.1 -6,6 l -1.2,0.4 c -0.2,0.1 -0.4,0.3 -0.4,0.5 0,0.2 0.2,0.5 0.4,0.5 l 1.2,0.4 c 1.2,0.4 2.2,0.9 3.2,1.7 1.4,1.1 2.4,2.6 2.9,4.3 l 0.4,1.2 c 0.1,0.2 0.3,0.4 0.5,0.4 v 0 c 0.3,0 0.5,-0.2 0.5,-0.4 l 0.4,-1.2 c 0.5,-1.7 1.5,-3.2 2.9,-4.3 0.9,-0.7 2,-1.4 3.1,-1.7 l 1.2,-0.4 c 0.2,-0.1 0.4,-0.3 0.4,-0.5 -0.2,-0.2 -0.3,-0.4 -0.5,-0.5 z"
   id="path10" />
		<path
   class="st6"
   d="m 583.3,166.1 -1.2,-0.4 c -2.8,-0.9 -5.1,-3.2 -6,-6 l -0.4,-1.2 c -0.1,-0.2 -0.3,-0.4 -0.5,-0.4 -0.2,0 -0.5,0.2 -0.5,0.4 l -0.4,1.2 c -0.9,2.8 -3.2,5.1 -6,6 l -1.2,0.4 c -0.2,0.1 -0.4,0.3 -0.4,0.5 0,0.2 0.2,0.5 0.4,0.5 l 1.2,0.4 c 1.2,0.4 2.2,0.9 3.2,1.7 1.4,1.1 2.4,2.6 2.9,4.3 l 0.4,1.2 c 0.1,0.2 0.3,0.4 0.5,0.4 v 0 c 0.3,0 0.5,-0.2 0.5,-0.4 l 0.4,-1.2 c 0.5,-1.7 1.5,-3.2 2.9,-4.3 0.9,-0.7 2,-1.4 3.1,-1.7 l 1.2,-0.4 c 0.2,-0.1 0.4,-0.3 0.4,-0.5 -0.1,-0.2 -0.3,-0.4 -0.5,-0.5 z"
   id="path11" />
	</g>
	<g
   id="g13">
		<path
   class="st6"
   d="m 493.2,238.8 -1.2,-0.4 c -2.8,-0.9 -5.1,-3.2 -6,-6 l -0.4,-1.2 c -0.1,-0.2 -0.3,-0.4 -0.5,-0.4 -0.3,0 -0.5,0.2 -0.5,0.4 l -0.4,1.2 c -0.9,2.8 -3.2,5.1 -6,6 l -1.2,0.4 c -0.2,0.1 -0.4,0.3 -0.4,0.5 0,0.3 0.2,0.5 0.4,0.5 l 1.2,0.4 c 1.2,0.4 2.2,0.9 3.2,1.7 1.4,1.1 2.4,2.6 2.9,4.3 l 0.4,1.2 c 0.1,0.2 0.3,0.4 0.5,0.4 v 0 c 0.3,0 0.5,-0.2 0.5,-0.4 l 0.4,-1.2 c 0.5,-1.7 1.5,-3.2 2.9,-4.3 0.9,-0.7 2,-1.4 3.1,-1.7 l 1.2,-0.4 c 0.2,-0.1 0.4,-0.3 0.4,-0.5 -0.1,-0.2 -0.3,-0.4 -0.5,-0.5 z"
   id="path12" />
		<path
   class="st6"
   d="m 563,238.8 -1.2,-0.4 c -2.8,-0.9 -5.1,-3.2 -6,-6 l -0.4,-1.2 c -0.1,-0.2 -0.3,-0.4 -0.5,-0.4 -0.2,0 -0.5,0.2 -0.5,0.4 l -0.4,1.2 c -0.9,2.8 -3.2,5.1 -6,6 l -1.2,0.4 c -0.2,0.1 -0.4,0.3 -0.4,0.5 0,0.3 0.2,0.5 0.4,0.5 l 1.2,0.4 c 1.2,0.4 2.2,0.9 3.2,1.7 1.4,1.1 2.4,2.6 2.9,4.3 l 0.4,1.2 c 0.1,0.2 0.3,0.4 0.5,0.4 v 0 c 0.3,0 0.5,-0.2 0.5,-0.4 l 0.4,-1.2 c 0.5,-1.7 1.5,-3.2 2.9,-4.3 0.9,-0.7 2,-1.4 3.1,-1.7 l 1.2,-0.4 c 0.2,-0.1 0.4,-0.3 0.4,-0.5 -0.2,-0.2 -0.4,-0.4 -0.5,-0.5 z"
   id="path13" />
	</g>
</g>
</svg>
