<?xml version="1.0" encoding="UTF-8" standalone="no"?>
<svg
   height="54.0px"
   width="54.0px"
   version="1.1"
   id="svg4"
   sodipodi:docname="ryujin_industries_1.svg"
   inkscape:version="1.4.2 (ebf0e940d0, 2025-05-08)"
   xmlns:inkscape="http://www.inkscape.org/namespaces/inkscape"
   xmlns:sodipodi="http://sodipodi.sourceforge.net/DTD/sodipodi-0.dtd"
   xmlns="http://www.w3.org/2000/svg"
   xmlns:svg="http://www.w3.org/2000/svg">
  <defs
     id="defs4" />
  <sodipodi:namedview
     id="namedview4"
     pagecolor="#ffffff"
     bordercolor="#000000"
     borderopacity="0.25"
     inkscape:showpageshadow="2"
     inkscape:pageopacity="0.0"
     inkscape:pagecheckerboard="0"
     inkscape:deskcolor="#d1d1d1"
     inkscape:zoom="5.5"
     inkscape:cx="27"
     inkscape:cy="27"
     inkscape:window-width="1078"
     inkscape:window-height="1020"
     inkscape:window-x="0"
     inkscape:window-y="0"
     inkscape:window-maximized="1"
     inkscape:current-layer="g4" />
  <g
     transform="matrix(1.0, 0.0, 0.0, 1.0, 27.0, 27.0)"
     id="g4">
    <path
       d="M25.15 25.2 L-25.15 25.2 -25.15 -25.3 25.15 -25.3 25.15 25.2"
       fill="#ffffff"
       fill-rule="evenodd"
       stroke="none"
       id="path1" />
    <path
       d="M22.6 -24.0 L-22.6 -24.0 Q-23.2 -24.0 -23.6 -23.6 -24.0 -23.2 -24.0 -22.6 L-24.0 22.6 Q-24.0 23.15 -23.6 23.6 -23.2 24.0 -22.6 24.0 L22.6 24.0 Q23.15 24.0 23.6 23.6 24.0 23.15 24.0 22.6 L24.0 -22.6 Q24.0 -23.2 23.6 -23.6 23.15 -24.0 22.6 -24.0 M22.6 -27.0 Q24.4 -27.0 25.7 -25.7 27.0 -24.4 27.0 -22.6 L27.0 22.6 Q27.0 24.4 25.7 25.7 24.4 27.0 22.6 27.0 L-22.6 27.0 Q-24.4 27.0 -25.7 25.7 -27.0 24.4 -27.0 22.6 L-27.0 -22.6 Q-27.0 -24.4 -25.7 -25.7 -24.4 -27.0 -22.6 -27.0 L22.6 -27.0"
       fill="#e42228"
       fill-rule="evenodd"
       stroke="none"
       id="path2" />
    <path
       d="M20.65 -21.9 L21.55 -21.55 21.9 -20.65 21.9 20.65 21.55 21.55 20.65 21.9 -20.65 21.9 -21.55 21.55 -21.9 20.65 -21.9 -20.65 -21.55 -21.55 -20.65 -21.9 20.65 -21.9"
       fill="#e52027"
       fill-rule="evenodd"
       stroke="none"
       id="path3" />
    <path
       d="M8.5 -11.0 L8.5 -6.95 -4.4 -6.95 -4.4 -3.5 Q-4.4 -1.4 -4.8 1.0 -5.55 5.4 -7.35 7.9 L-12.45 13.85 -15.8 17.45 -18.65 14.55 -15.45 11.15 Q-11.95 7.35 -10.6 5.5 -9.45 3.9 -8.85 0.7 -8.45 -1.55 -8.45 -3.5 L-8.45 -17.45 -4.4 -17.45 -4.4 -11.0 8.5 -11.0 M15.8 17.3 L12.45 13.8 7.45 7.9 Q5.45 5.15 4.75 -0.65 L2.0 -0.65 2.0 15.0 -2.05 15.0 -2.05 -4.7 8.45 -4.7 8.6 -2.8 Q8.8 0.0 9.35 2.25 9.9 4.45 10.7 5.5 L15.45 11.05 18.65 14.45 15.8 17.3"
       fill="#ffffff"
       fill-rule="evenodd"
       stroke="none"
       id="path4" />
  </g>
</svg>
