<?xml version="1.0" encoding="UTF-8" standalone="no"?>
<!-- Created with Inkscape (http://www.inkscape.org/) -->

<svg
   width="1000"
   height="1000"
   viewBox="0 0 1000 1000"
   version="1.1"
   id="svg1"
   xml:space="preserve"
   xmlns="http://www.w3.org/2000/svg"
   xmlns:svg="http://www.w3.org/2000/svg"><defs
     id="defs1" /><path
     id="path1-6"
     style="fill: #001A29;fill-opacity:1;stroke:none;stroke-width:45.5394;stroke-dasharray:none"
     d="M 510.27174,0.01737809 C 482.37297,-0.71538491 455.20905,21.802107 455.20905,56.084901 V 387.39264 l -70.08602,-73.52649 c -0.43984,-0.50263 -0.89179,-0.99886 -1.35636,-1.48655 l -70.55174,-74.0128 c -17.38013,-18.23255 -45.55839,-18.23255 -62.93807,0 -17.38013,18.23305 -17.38013,47.79409 0,66.02667 l 70.55175,74.01406 c 0.46276,0.48557 0.93328,0.95764 1.41079,1.41761 L 436.79294,500.00237 320.08897,622.4335 c -0.51496,0.48966 -1.02151,0.99718 -1.51951,1.51929 l -68.2372,71.58484 c -17.38591,18.24235 -17.38591,47.81016 0,66.0525 17.3859,18.23767 45.57371,18.23767 62.95962,0 l 68.23718,-71.58908 c 0.58077,-0.60677 1.14257,-1.23142 1.68469,-1.86078 l 71.99534,-75.53058 V 943.9153 c 0,49.86673 57.47176,74.8398 91.08046,39.57723 L 747.13209,772.79808 c 20.83486,-21.85728 20.83486,-57.29694 0,-79.15886 L 562.54893,500.00214 747.13204,306.36079 c 20.83482,-21.85863 20.83482,-57.29907 0,-79.15774 L 546.28945,16.506554 C 535.78675,5.4876221 522.95302,0.35042209 510.27174,0.01737809 Z M 544.13286,146.1716 659.1019,266.78158 544.13286,387.39264 Z m 0,466.43827 114.96904,120.61104 -114.96904,120.60675 z" /></svg>
