<?xml version="1.0" encoding="UTF-8" standalone="no"?>
<!-- Uploaded to: SVG Repo, www.svgrepo.com, Generator: SVG Repo Mixer Tools -->

<svg
   fill="#001A29"
   version="1.1"
   id="Capa_1"
   width="800"
   height="800"
   viewBox="0 0 46.184 46.184"
   xml:space="preserve"
   xmlns="http://www.w3.org/2000/svg"
   xmlns:svg="http://www.w3.org/2000/svg"><defs
   id="defs5" />
<path
   id="path1"
   d="m 29.953758,1.9736535 c -1.072356,0.039991 -1.773754,0.9796056 -1.773754,0.9796056 l 7.366255,7.4272329 -3.610108,4.259164 -3.225121,-0.941043 -1.783045,1.098042 c 0,0 3.539116,1.543026 4.239139,2.432056 0.701024,0.88903 1.625054,3.840172 1.625054,3.840172 l 1.699066,-0.895041 -0.793066,-3.885138 4.098152,-3.262104 7.025243,7.704246 c 0.002,0 1.584052,-0.64903 1.336044,-1.83207 -0.248008,-1.18304 -5.137159,-8.079266 -5.137159,-8.079266 0,0 4.153107,-4.0121289 4.428115,-4.4881451 C 45.721585,5.855349 46.773652,4.7882946 45.432613,3.6852572 44.090565,2.58422 43.12951,3.2962789 42.654494,3.7212932 c -0.477016,0.4270144 -4.044122,3.6221056 -4.044122,3.6221056 0,0 -7.241242,-5.272187 -8.437282,-5.3651902 -0.07469,-0.00588 -0.147839,-0.00722 -0.219329,-0.00456 z m -6.48691,2.487666 c -10.95837,0 -19.8736826,8.9162965 -19.8736826,19.8756665 0,3.659123 1.0130376,7.080223 2.4340855,9.3873 l 1.718053,-1.01501 c -1.244042,-2.010067 -2.1520653,-5.084187 -2.1520653,-8.371298 0,-9.856333 8.0192764,-17.8755932 17.8736094,-17.8755932 2.029068,0 3.975142,0.3569751 5.793203,0.981996 L 27.08999,4.809323 C 25.91295,4.5903158 24.704889,4.4613195 23.466848,4.4613195 Z M 27.888017,17.383725 C 19.08772,25.936014 8.105311,35.354329 5.7162306,35.657339 4.8092001,35.722339 4.2372191,35.511363 4.0112116,35.023346 3.756203,34.466328 3.4491906,34.106286 4.0982126,33.454263 L 2.2421485,29.317144 c -1.77205975,1.78206 -2.85913339,5.212187 -1.86309979,7.37726 0.86802929,1.888064 2.73511909,2.974086 5.06219759,2.974086 0.1880063,0 0.3810011,-0.008 0.5740074,-0.02102 C 10.743414,39.295459 26.086934,24.713 30.678089,20.25385 c -0.001,-0.001 -0.394992,-1.227074 -1.061015,-1.852095 -0.666022,-0.625021 -1.729057,-1.018032 -1.729057,-1.018032 z m 12.896425,2.54711 c 0.359012,1.410048 0.557004,2.885091 0.557004,4.407143 0,9.854332 -8.019266,17.873606 -17.874598,17.873606 -4.185142,0 -8.02729,-1.453039 -11.071393,-3.875123 l -1.770056,1.127042 c 3.463117,2.955101 7.941283,4.748156 12.841449,4.748156 10.95937,0 19.874674,-8.916311 19.874674,-19.873681 0,-0.726025 -0.051,-1.437045 -0.127008,-2.140069 z"
   style="fill: #001A29;fill-opacity:1;stroke:none;stroke-width:1.00004" />
</svg>
