<?xml version="1.0" encoding="UTF-8" standalone="no"?>
<!-- Uploaded to: SVG Repo, www.svgrepo.com, Generator: SVG Repo Mixer Tools -->

<svg
   width="1805.9082"
   height="1390.8405"
   viewBox="0 0 54.177246 41.725214"
   fill="#E6E6F1"
   version="1.1"
   id="svg1"
   xmlns="http://www.w3.org/2000/svg"
   xmlns:svg="http://www.w3.org/2000/svg">
  <defs
     id="defs1" />
  <path
     id="circle1"
     style="fill: #E6E6F1;fill-opacity:1;stroke:none;stroke-width:2.98043"
     d="M 27.355505,0.00499535 C 22.182513,-0.08529193 17.062199,1.0494585 12.412107,3.3174759 7.7620198,5.5854596 3.7132195,8.9219341 0.5996072,13.053824 a 2.9804349,2.9804349 0 0 0 0.5879297,4.173808 2.9804349,2.9804349 0 0 0 4.1738087,-0.585937 c 2.5476038,-3.380773 5.8592954,-6.111071 9.6640424,-7.9667582 3.804746,-1.8557121 7.99392,-2.7848321 12.226582,-2.710957 4.232346,0.073901 8.387644,1.1493902 12.124981,3.1366992 3.737737,1.987354 6.951111,4.829454 9.378926,8.296875 a 2.9804349,2.9804349 0 0 0 4.150371,0.732422 2.9804349,2.9804349 0 0 0 0.732422,-4.150371 C 50.671301,9.7415902 46.742002,6.2659032 42.173865,3.8370266 37.605922,1.4080477 32.528217,0.0953161 27.355505,0.00499535 Z M 27.199177,11.924898 c -3.762127,-0.06576 -7.485386,0.758995 -10.867148,2.408203 a 2.9807329,2.9807329 0 0 0 -0.002,0 c -3.381817,1.649575 -6.325445,4.077203 -8.5898438,7.082051 a 2.9804349,2.9804349 0 0 0 0.5879297,4.173808 2.9804349,2.9804349 0 0 0 4.1738081,-0.585937 c 1.698447,-2.253831 3.904836,-4.075188 6.441387,-5.312461 2.536587,-1.237036 5.33075,-1.856009 8.152383,-1.80668 2.821402,0.04904 5.590358,0.766901 8.082012,2.091797 2.491869,1.324876 4.635231,3.219506 6.253886,5.53125 a 2.9804349,2.9804349 0 0 0 4.15043,0.732422 2.9804349,2.9804349 0 0 0 0.732422,-4.150371 C 44.156292,19.006734 41.298913,16.478457 37.976552,14.712027 34.654587,12.945626 30.961586,11.99031 27.199228,11.924898 Z m -0.208945,11.919961 c -1.880634,-0.03267 -3.743428,0.380819 -5.433574,1.205039 -1.690564,0.82482 -3.16273,2.036597 -4.294922,3.539062 a 2.9804349,2.9804349 0 0 0 0.587871,4.173868 2.9804349,2.9804349 0 0 0 4.173867,-0.585938 c 0.566178,-0.75134 1.300678,-1.356875 2.146465,-1.769531 0.845618,-0.412376 1.77624,-0.620008 2.716816,-0.603516 a 2.9807329,2.9807329 0 0 0 0.002,0 c 0.940038,0.01629 1.862778,0.255569 2.69332,0.697266 0.830225,0.441225 1.54392,1.072561 2.084004,1.843711 a 2.9804349,2.9804349 0 0 0 4.150371,0.732422 2.9804349,2.9804349 0 0 0 0.732422,-4.150371 c -1.078579,-1.540032 -2.506543,-2.806226 -4.167949,-3.689473 h -0.002 C 30.718814,24.35485 28.872182,23.877737 26.992224,23.844859 Z m -0.20707,11.919492 a 2.9804344,2.9804344 0 0 0 -2.98043,2.98043 2.9804344,2.9804344 0 0 0 2.98043,2.980429 2.9804344,2.9804344 0 0 0 2.980429,-2.980429 2.9804344,2.9804344 0 0 0 -2.980429,-2.98043 z" />
</svg>
